<?xml version="1.0" encoding="UTF-8"?>
<svg xmlns="http://www.w3.org/2000/svg" viewBox="0 0 2146.321 2212.324">
  <defs>
    <style>
      .cls-1 {
        letter-spacing: -.003em;
      }

      .cls-2 {
        letter-spacing: .004em;
      }

      .cls-3 {
        letter-spacing: .004em;
      }

      .cls-4, .cls-5, .cls-6 {
        stroke: #000;
        stroke-miterlimit: 10;
      }

      .cls-7 {
        letter-spacing: -.031em;
      }

      .cls-8 {
        font-family: MyriadPro-Regular, 'Myriad Pro';
        font-size: 50px;
      }

      .cls-5 {
        fill: #fff;
        stroke-width: 4px;
      }

      .cls-9 {
        letter-spacing: -.006em;
      }

      .cls-10 {
        letter-spacing: 0em;
      }

      .cls-11 {
        letter-spacing: .508em;
      }

      .cls-12 {
        letter-spacing: -.016em;
      }

      .cls-13 {
        letter-spacing: -.014em;
      }

      .cls-14 {
        letter-spacing: 0em;
      }

      .cls-15 {
        letter-spacing: -.007em;
      }

      .cls-16 {
        letter-spacing: -.004em;
      }

      .cls-17 {
        letter-spacing: -.008em;
      }

      .cls-6 {
        stroke-width: 2px;
      }

      .cls-18 {
        letter-spacing: -.005em;
      }

      .cls-19 {
        letter-spacing: -.01em;
      }

      .cls-20 {
        letter-spacing: -.01em;
      }

      .cls-21 {
        letter-spacing: -.071em;
      }
    </style>
  </defs>
  <g id="_ÎÓÈ_1" data-name="—ÎÓÈ_1">
    <g>
      <path class="cls-5" d="m587.007,30.153h1442.544c27.921,0,50.589,22.668,50.589,50.589v2023.968c0,27.921-22.668,50.589-50.589,50.589H587.007V30.153h0Z"/>
      <g>
        <rect class="cls-4" x="664.947" y="75.3" width="52.176" height="52.176"/>
        <polygon class="cls-4" points="705.011 179.652 664.947 179.652 664.947 220.647 664.947 231.827 717.123 231.827 717.123 179.652 705.011 179.652"/>
        <rect class="cls-4" x="664.947" y="284.003" width="52.176" height="52.176"/>
        <rect class="cls-4" x="664.947" y="388.355" width="52.176" height="52.176"/>
        <rect class="cls-4" x="664.947" y="492.706" width="52.176" height="52.176"/>
        <rect class="cls-4" x="664.947" y="597.057" width="52.176" height="52.176"/>
        <rect class="cls-4" x="664.947" y="701.409" width="52.176" height="52.176"/>
        <rect class="cls-4" x="664.947" y="805.76" width="52.176" height="52.176"/>
        <rect class="cls-4" x="664.947" y="910.112" width="52.176" height="52.176"/>
        <rect class="cls-4" x="664.947" y="1014.463" width="52.176" height="52.176"/>
        <rect class="cls-4" x="664.947" y="1118.814" width="52.176" height="52.176"/>
        <rect class="cls-4" x="664.947" y="1223.166" width="52.176" height="52.176"/>
        <rect class="cls-4" x="664.947" y="1327.517" width="52.176" height="52.176"/>
        <rect class="cls-4" x="664.947" y="1431.869" width="52.176" height="52.176"/>
        <rect class="cls-4" x="664.947" y="1536.22" width="52.176" height="52.176"/>
        <rect class="cls-4" x="664.947" y="1640.572" width="52.176" height="52.176"/>
        <rect class="cls-4" x="664.947" y="1744.923" width="52.176" height="52.176"/>
        <rect class="cls-4" x="664.947" y="1849.274" width="52.176" height="52.176"/>
        <rect class="cls-4" x="664.947" y="1953.626" width="52.176" height="52.176"/>
        <rect class="cls-4" x="664.947" y="2057.977" width="52.176" height="52.176"/>
        <g>
          <path class="cls-4" d="m677.947,192.074c-1.271-.403-2.649-.853-4.11-1.329-5.684-1.854-12.758-4.162-19.7-5.736-9.669-2.194-19.103-3.002-26.242-3.462-8.256-.532-33.382-2.151-70.056-1.447-7.494.144-15.508.446-23.329,1.669-10.59,1.657-17.914,3.461-23.749,5.849-.661.271-2.258,1.058-3.954,2.119-2.274,1.422-3.903,3.344-4.842,5.71-1.918,4.836.382,9.684,2.04,11.783,3.103,3.933,7.322,5.07,9.35,5.617l.235.063c4.492,1.23,9.433,2.275,15.154,3.485,1.936.409,3.948.835,6.034,1.288l9.334,2.093h42.944v-11.747h-41.594l-8.192-1.825c-2.108-.458-4.14-.887-6.095-1.301-5.54-1.172-10.325-2.184-14.484-3.323l-.278-.075c-.385-.104-.88-.305-1.388-.559-1.058-.528-.943-2.079.178-2.456.006-.002.012-.004.018-.007,5.013-1.932,11.459-3.602,21.103-5.11,7.127-1.114,14.659-1.394,21.738-1.53,36.181-.693,60.94.901,69.077,1.425,6.705.432,15.537,1.185,24.398,3.195,6.414,1.455,13.202,3.668,18.656,5.448,1.501.49,2.917.951,4.223,1.365.193.061.395-.048.455-.242l3.308-10.504c.061-.193-.041-.396-.234-.457Z"/>
          <path class="cls-4" d="m677.929,215.133c-1.271-.403-2.649-.853-4.11-1.329-5.684-1.854-12.758-4.162-19.7-5.736-9.669-2.194-19.103-3.002-26.242-3.462-8.256-.532-33.382-2.151-70.055-1.447-7.495.144-15.508.445-23.329,1.669-10.59,1.657-17.914,3.461-23.749,5.849-.661.271-2.258,1.058-3.954,2.119-2.274,1.422-3.903,3.344-4.842,5.71-1.918,4.836.382,9.684,2.04,11.783,3.103,3.933,7.322,5.07,9.35,5.617l.235.064c4.492,1.23,9.433,2.275,15.154,3.485,1.936.41,3.948.835,6.034,1.288l9.334,2.093h42.944v-11.747h-41.594l-8.192-1.825c-2.108-.458-4.14-.887-6.095-1.301-5.54-1.172-10.325-2.184-14.484-3.323l-.278-.075c-.385-.104-.88-.305-1.388-.559-1.058-.528-.942-2.079.179-2.456.006-.002.012-.004.018-.007,5.013-1.932,11.459-3.602,21.103-5.11,7.127-1.115,14.659-1.394,21.738-1.53,36.181-.693,60.94.901,69.077,1.425,6.704.432,15.537,1.185,24.398,3.195,6.414,1.455,13.202,3.668,18.656,5.448,1.501.49,2.917.951,4.223,1.365.194.061.395-.048.455-.242l3.308-10.504c.061-.193-.041-.396-.234-.457Z"/>
        </g>
        <g>
          <path class="cls-4" d="m677.964,295.357c-1.271-.403-2.649-.853-4.11-1.329-5.684-1.854-12.757-4.162-19.7-5.736-9.669-2.194-19.103-3.002-26.242-3.462-8.256-.532-33.382-2.151-70.055-1.447-7.495.144-15.508.445-23.329,1.669-10.59,1.657-17.914,3.461-23.749,5.849-.661.271-2.258,1.058-3.954,2.119-2.274,1.422-3.903,3.344-4.842,5.71-1.918,4.836.382,9.684,2.04,11.783,3.103,3.933,7.322,5.07,9.35,5.617l.235.064c4.492,1.23,9.433,2.275,15.154,3.485,1.936.409,3.948.835,6.034,1.288l9.334,2.093h42.944v-11.746h-41.594l-8.192-1.825c-2.108-.458-4.14-.888-6.095-1.301-5.54-1.172-10.325-2.184-14.484-3.323l-.278-.075c-.385-.104-.88-.305-1.388-.559-1.058-.528-.943-2.079.179-2.456.006-.002.012-.004.018-.007,5.013-1.932,11.459-3.601,21.103-5.11,7.127-1.115,14.659-1.394,21.738-1.53,36.181-.693,60.94.901,69.077,1.425,6.705.432,15.537,1.185,24.398,3.195,6.414,1.455,13.202,3.669,18.656,5.448,1.501.489,2.917.951,4.223,1.365.193.061.395-.048.455-.242l3.308-10.504c.061-.193-.041-.396-.234-.457Z"/>
          <path class="cls-4" d="m677.947,320.279c-1.271-.403-2.649-.853-4.11-1.329-5.684-1.854-12.758-4.162-19.7-5.736-9.669-2.194-19.103-3.002-26.242-3.462-8.256-.532-33.382-2.151-70.056-1.447-7.494.144-15.508.445-23.329,1.669-10.59,1.657-17.914,3.461-23.749,5.849-.661.271-2.258,1.058-3.954,2.119-2.274,1.422-3.903,3.344-4.842,5.71-1.918,4.836.382,9.684,2.04,11.783,3.103,3.933,7.322,5.07,9.35,5.617l.235.064c4.492,1.23,9.433,2.275,15.154,3.485,1.936.409,3.948.835,6.034,1.288l9.334,2.093h42.944v-11.747h-41.594l-8.192-1.825c-2.108-.458-4.14-.887-6.095-1.301-5.54-1.172-10.325-2.184-14.484-3.323l-.278-.075c-.385-.104-.88-.305-1.388-.559-1.058-.528-.943-2.079.178-2.456.006-.002.012-.004.018-.007,5.013-1.932,11.459-3.602,21.103-5.11,7.127-1.115,14.659-1.394,21.738-1.53,36.181-.693,60.94.901,69.077,1.425,6.705.432,15.537,1.185,24.398,3.195,6.414,1.455,13.202,3.668,18.656,5.448,1.501.489,2.917.951,4.223,1.365.193.061.395-.048.455-.242l3.308-10.504c.061-.193-.041-.396-.234-.457Z"/>
        </g>
        <g>
          <path class="cls-4" d="m677.973,398.708c-1.271-.403-2.649-.853-4.11-1.329-5.684-1.854-12.757-4.162-19.7-5.736-9.669-2.194-19.103-3.002-26.242-3.462-8.256-.532-33.382-2.151-70.056-1.447-7.494.144-15.507.446-23.329,1.669-10.59,1.657-17.914,3.46-23.749,5.849-.661.271-2.258,1.058-3.954,2.119-2.274,1.422-3.903,3.344-4.842,5.71-1.918,4.836.382,9.684,2.04,11.783,3.103,3.933,7.322,5.07,9.35,5.617l.235.063c4.492,1.23,9.433,2.275,15.154,3.485,1.936.409,3.948.835,6.034,1.288l9.335,2.093h42.944v-11.747h-41.594l-8.192-1.825c-2.108-.458-4.139-.888-6.095-1.301-5.54-1.172-10.325-2.184-14.483-3.323l-.278-.075c-.385-.104-.88-.305-1.388-.559-1.058-.528-.943-2.079.178-2.456.006-.002.012-.004.018-.007,5.013-1.932,11.459-3.601,21.103-5.11,7.127-1.115,14.659-1.394,21.738-1.53,36.181-.693,60.94.901,69.077,1.425,6.704.432,15.537,1.185,24.398,3.195,6.414,1.455,13.202,3.669,18.656,5.448,1.501.489,2.917.951,4.223,1.365.193.061.394-.048.455-.242l3.308-10.504c.061-.193-.041-.396-.234-.457Z"/>
          <path class="cls-4" d="m677.955,425.494c-1.271-.403-2.649-.853-4.11-1.329-5.684-1.854-12.758-4.162-19.7-5.736-9.669-2.194-19.103-3.002-26.242-3.462-8.256-.532-33.382-2.151-70.055-1.447-7.494.144-15.508.445-23.329,1.669-10.59,1.657-17.914,3.461-23.749,5.849-.661.271-2.258,1.058-3.954,2.119-2.274,1.423-3.903,3.344-4.842,5.71-1.918,4.836.382,9.684,2.04,11.783,3.103,3.933,7.322,5.07,9.35,5.617l.235.064c4.492,1.23,9.433,2.275,15.154,3.485,1.936.41,3.948.835,6.034,1.288l9.334,2.093h42.944v-11.747h-41.594l-8.192-1.825c-2.108-.458-4.14-.887-6.095-1.301-5.54-1.172-10.325-2.184-14.484-3.323l-.278-.075c-.385-.104-.88-.305-1.388-.559-1.058-.528-.943-2.079.178-2.456.006-.002.012-.004.018-.007,5.013-1.932,11.459-3.601,21.103-5.11,7.127-1.115,14.659-1.394,21.738-1.53,36.181-.693,60.94.901,69.077,1.425,6.705.432,15.537,1.185,24.398,3.195,6.414,1.455,13.202,3.669,18.656,5.448,1.501.49,2.917.951,4.223,1.365.194.061.395-.048.455-.242l3.308-10.504c.061-.193-.041-.396-.234-.457Z"/>
        </g>
        <g>
          <path class="cls-4" d="m677.964,502.128c-1.271-.403-2.649-.853-4.11-1.329-5.684-1.854-12.757-4.162-19.7-5.736-9.669-2.194-19.103-3.002-26.242-3.462-8.256-.532-33.382-2.151-70.055-1.447-7.495.144-15.508.445-23.329,1.669-10.59,1.657-17.914,3.461-23.749,5.849-.661.271-2.258,1.058-3.954,2.119-2.274,1.422-3.903,3.344-4.842,5.71-1.918,4.836.382,9.684,2.04,11.783,3.103,3.933,7.322,5.07,9.35,5.618l.235.063c4.492,1.23,9.433,2.275,15.154,3.485,1.936.41,3.948.835,6.034,1.288l9.334,2.093h42.944v-11.747h-41.594l-8.192-1.825c-2.108-.458-4.14-.887-6.095-1.301-5.54-1.172-10.325-2.184-14.484-3.323l-.278-.075c-.385-.104-.88-.305-1.388-.559-1.058-.528-.943-2.079.179-2.456.006-.002.012-.004.018-.007,5.013-1.931,11.459-3.601,21.103-5.11,7.127-1.115,14.659-1.394,21.738-1.53,36.181-.693,60.94.901,69.077,1.425,6.705.432,15.537,1.185,24.398,3.195,6.414,1.454,13.202,3.668,18.656,5.448,1.501.49,2.917.951,4.223,1.365.193.061.395-.048.455-.242l3.308-10.504c.061-.193-.041-.396-.234-.457Z"/>
          <path class="cls-4" d="m677.947,529.845c-1.271-.403-2.649-.853-4.11-1.329-5.684-1.854-12.758-4.162-19.7-5.736-9.669-2.194-19.103-3.002-26.242-3.462-8.256-.532-33.382-2.151-70.056-1.447-7.494.144-15.508.445-23.329,1.669-10.59,1.657-17.914,3.461-23.749,5.849-.661.271-2.258,1.058-3.954,2.119-2.274,1.422-3.903,3.344-4.842,5.71-1.918,4.836.382,9.684,2.04,11.783,3.103,3.933,7.322,5.07,9.35,5.617l.235.063c4.492,1.23,9.433,2.275,15.154,3.485,1.936.41,3.948.835,6.034,1.288l9.334,2.093h42.944v-11.746h-41.594l-8.192-1.825c-2.108-.458-4.14-.887-6.095-1.301-5.54-1.172-10.325-2.184-14.484-3.323l-.278-.075c-.385-.104-.88-.305-1.388-.559-1.058-.528-.943-2.079.178-2.456.006-.002.012-.004.018-.007,5.013-1.931,11.459-3.601,21.103-5.11,7.127-1.115,14.659-1.394,21.738-1.53,36.181-.693,60.94.901,69.077,1.425,6.705.432,15.537,1.185,24.398,3.195,6.414,1.455,13.202,3.668,18.656,5.448,1.501.49,2.917.952,4.223,1.365.193.061.395-.048.455-.242l3.308-10.504c.061-.193-.041-.396-.234-.457Z"/>
        </g>
        <g>
          <path class="cls-4" d="m677.938,605.839c-1.271-.403-2.65-.853-4.111-1.329-5.684-1.854-12.758-4.162-19.7-5.736-9.669-2.194-19.103-3.002-26.242-3.462-8.256-.532-33.382-2.151-70.056-1.447-7.494.144-15.507.445-23.329,1.669-10.59,1.657-17.914,3.461-23.749,5.849-.661.271-2.258,1.058-3.954,2.119-2.274,1.422-3.903,3.344-4.842,5.71-1.918,4.836.382,9.684,2.04,11.783,3.103,3.933,7.322,5.07,9.35,5.617l.235.064c4.492,1.23,9.433,2.275,15.154,3.485,1.936.409,3.948.835,6.034,1.288l9.334,2.093h42.944v-11.747h-41.594l-8.192-1.825c-2.108-.458-4.139-.887-6.095-1.301-5.54-1.172-10.325-2.184-14.484-3.323l-.278-.075c-.385-.104-.88-.305-1.388-.559-1.058-.528-.942-2.079.179-2.456.006-.002.012-.004.018-.007,5.013-1.932,11.459-3.602,21.103-5.11,7.127-1.115,14.659-1.394,21.738-1.53,36.181-.693,60.94.901,69.077,1.425,6.705.432,15.537,1.185,24.398,3.195,6.414,1.455,13.202,3.669,18.656,5.448,1.501.49,2.917.951,4.223,1.365.193.061.395-.048.455-.242l3.308-10.504c.061-.193-.041-.396-.234-.457Z"/>
          <path class="cls-4" d="m677.938,633.885c-1.271-.403-2.65-.853-4.111-1.329-5.684-1.854-12.758-4.162-19.7-5.736-9.669-2.194-19.103-3.002-26.242-3.462-8.256-.532-33.382-2.151-70.056-1.447-7.494.144-15.507.445-23.329,1.669-10.59,1.657-17.914,3.461-23.749,5.849-.661.271-2.258,1.058-3.954,2.119-2.274,1.422-3.903,3.344-4.842,5.71-1.918,4.836.382,9.684,2.04,11.783,3.103,3.933,7.322,5.07,9.35,5.618l.235.063c4.492,1.23,9.433,2.275,15.154,3.485,1.936.41,3.948.835,6.034,1.288l9.334,2.093h42.944v-11.747h-41.594l-8.192-1.825c-2.108-.458-4.139-.887-6.095-1.301-5.54-1.172-10.325-2.184-14.484-3.323l-.278-.075c-.385-.104-.88-.305-1.388-.559-1.058-.528-.942-2.079.179-2.456.006-.002.012-.004.018-.007,5.013-1.931,11.459-3.601,21.103-5.11,7.127-1.115,14.659-1.394,21.738-1.53,36.181-.693,60.94.901,69.077,1.425,6.705.432,15.537,1.184,24.398,3.195,6.414,1.454,13.202,3.668,18.656,5.448,1.501.49,2.917.951,4.223,1.365.193.061.395-.048.455-.242l3.308-10.504c.061-.193-.041-.396-.234-.457Z"/>
        </g>
        <g>
          <path class="cls-4" d="m677.938,711.874c-1.271-.403-2.65-.853-4.111-1.329-5.684-1.854-12.758-4.162-19.7-5.736-9.669-2.194-19.103-3.002-26.242-3.462-8.256-.532-33.382-2.151-70.056-1.447-7.494.144-15.507.445-23.329,1.669-10.59,1.657-17.914,3.461-23.749,5.849-.661.271-2.258,1.058-3.954,2.119-2.274,1.422-3.903,3.344-4.842,5.71-1.918,4.836.382,9.684,2.04,11.783,3.103,3.933,7.322,5.07,9.35,5.617l.235.063c4.492,1.23,9.433,2.275,15.154,3.485,1.936.41,3.948.835,6.034,1.288l9.334,2.093h42.944v-11.746h-41.594l-8.192-1.825c-2.108-.458-4.139-.887-6.095-1.301-5.54-1.172-10.325-2.184-14.484-3.323l-.278-.075c-.385-.104-.88-.305-1.388-.559-1.058-.528-.942-2.079.179-2.456.006-.002.012-.004.018-.007,5.013-1.931,11.459-3.601,21.103-5.11,7.127-1.115,14.659-1.394,21.738-1.53,36.181-.693,60.94.901,69.077,1.425,6.705.432,15.537,1.185,24.398,3.195,6.414,1.455,13.202,3.669,18.656,5.448,1.501.49,2.917.952,4.223,1.365.193.061.395-.048.455-.242l3.308-10.504c.061-.193-.041-.396-.234-.457Z"/>
          <path class="cls-4" d="m677.938,739.92c-1.271-.403-2.65-.853-4.111-1.329-5.684-1.854-12.758-4.162-19.7-5.736-9.669-2.194-19.103-3.002-26.242-3.462-8.256-.532-33.382-2.151-70.056-1.447-7.494.144-15.507.445-23.329,1.669-10.59,1.657-17.914,3.46-23.749,5.849-.661.271-2.258,1.058-3.954,2.119-2.274,1.422-3.903,3.344-4.842,5.71-1.918,4.836.382,9.684,2.04,11.783,3.103,3.933,7.322,5.07,9.35,5.618l.235.064c4.492,1.23,9.433,2.275,15.154,3.485,1.936.409,3.948.835,6.034,1.288l9.334,2.093h42.944v-11.747h-41.594l-8.192-1.825c-2.108-.458-4.139-.887-6.095-1.301-5.54-1.172-10.325-2.184-14.484-3.323l-.278-.075c-.385-.104-.88-.305-1.388-.559-1.058-.528-.942-2.079.179-2.456.006-.002.012-.004.018-.007,5.013-1.932,11.459-3.602,21.103-5.11,7.127-1.115,14.659-1.394,21.738-1.53,36.181-.693,60.94.901,69.077,1.425,6.705.432,15.537,1.185,24.398,3.195,6.414,1.455,13.202,3.668,18.656,5.448,1.501.49,2.917.951,4.223,1.365.193.061.395-.048.455-.242l3.308-10.504c.061-.193-.041-.396-.234-.457Z"/>
        </g>
        <g>
          <path class="cls-4" d="m677.938,816.045c-1.271-.403-2.65-.853-4.111-1.329-5.684-1.854-12.758-4.162-19.7-5.736-9.669-2.194-19.103-3.002-26.242-3.462-8.256-.532-33.382-2.151-70.056-1.447-7.494.144-15.507.445-23.329,1.669-10.59,1.657-17.914,3.46-23.749,5.849-.661.271-2.258,1.058-3.954,2.119-2.274,1.422-3.903,3.344-4.842,5.71-1.918,4.836.382,9.684,2.04,11.783,3.103,3.933,7.322,5.07,9.35,5.617l.235.063c4.492,1.23,9.433,2.275,15.154,3.485,1.936.41,3.948.835,6.034,1.288l9.334,2.093h42.944v-11.747h-41.594l-8.192-1.825c-2.108-.458-4.139-.887-6.095-1.301-5.54-1.172-10.325-2.184-14.484-3.323l-.278-.075c-.385-.104-.88-.305-1.388-.559-1.058-.528-.942-2.079.179-2.456.006-.002.012-.004.018-.007,5.013-1.932,11.459-3.602,21.103-5.11,7.127-1.114,14.659-1.394,21.738-1.53,36.181-.693,60.94.901,69.077,1.425,6.705.432,15.537,1.185,24.398,3.195,6.414,1.455,13.202,3.668,18.656,5.448,1.501.49,2.917.952,4.223,1.365.193.061.395-.048.455-.242l3.308-10.504c.061-.193-.041-.396-.234-.457Z"/>
          <path class="cls-4" d="m677.938,844.091c-1.271-.403-2.65-.853-4.111-1.329-5.684-1.854-12.758-4.162-19.7-5.736-9.669-2.194-19.103-3.002-26.242-3.462-8.256-.532-33.382-2.151-70.056-1.447-7.494.144-15.507.445-23.329,1.669-10.59,1.657-17.914,3.461-23.749,5.849-.661.271-2.258,1.058-3.954,2.119-2.274,1.422-3.903,3.344-4.842,5.71-1.918,4.836.382,9.684,2.04,11.783,3.103,3.933,7.322,5.07,9.35,5.618l.235.064c4.492,1.23,9.433,2.275,15.154,3.485,1.936.409,3.948.835,6.034,1.288l9.334,2.093h42.944v-11.747h-41.594l-8.192-1.825c-2.108-.458-4.139-.887-6.095-1.301-5.54-1.172-10.325-2.184-14.484-3.323l-.278-.075c-.385-.104-.88-.305-1.388-.559-1.058-.528-.942-2.079.179-2.456.006-.002.012-.004.018-.007,5.013-1.932,11.459-3.602,21.103-5.11,7.127-1.115,14.659-1.394,21.738-1.53,36.181-.693,60.94.901,69.077,1.425,6.705.432,15.537,1.185,24.398,3.195,6.414,1.455,13.202,3.669,18.656,5.448,1.501.49,2.917.951,4.223,1.365.193.061.395-.048.455-.242l3.308-10.504c.061-.193-.041-.396-.234-.457Z"/>
        </g>
        <g>
          <path class="cls-4" d="m677.938,920.216c-1.271-.403-2.65-.853-4.111-1.329-5.684-1.854-12.758-4.162-19.7-5.736-9.669-2.194-19.103-3.002-26.242-3.462-8.256-.532-33.382-2.151-70.056-1.447-7.494.144-15.507.445-23.329,1.669-10.59,1.657-17.914,3.461-23.749,5.849-.661.271-2.258,1.058-3.954,2.119-2.274,1.422-3.903,3.344-4.842,5.71-1.918,4.836.382,9.684,2.04,11.783,3.103,3.933,7.322,5.07,9.35,5.617l.235.064c4.492,1.23,9.433,2.275,15.154,3.485,1.936.41,3.948.835,6.034,1.288l9.334,2.093h42.944v-11.747h-41.594l-8.192-1.825c-2.108-.458-4.139-.887-6.095-1.301-5.54-1.172-10.325-2.184-14.484-3.323l-.278-.075c-.385-.104-.88-.305-1.388-.559-1.058-.528-.942-2.079.179-2.456.006-.002.012-.004.018-.007,5.013-1.931,11.459-3.601,21.103-5.11,7.127-1.114,14.659-1.394,21.738-1.53,36.181-.693,60.94.901,69.077,1.425,6.705.432,15.537,1.185,24.398,3.195,6.414,1.455,13.202,3.669,18.656,5.448,1.501.49,2.917.952,4.223,1.365.193.061.395-.048.455-.242l3.308-10.504c.061-.193-.041-.396-.234-.457Z"/>
          <path class="cls-4" d="m677.938,948.262c-1.271-.403-2.65-.853-4.111-1.329-5.684-1.854-12.758-4.162-19.7-5.736-9.669-2.194-19.103-3.002-26.242-3.462-8.256-.532-33.382-2.151-70.056-1.447-7.494.144-15.507.446-23.329,1.669-10.59,1.657-17.914,3.461-23.749,5.849-.661.271-2.258,1.059-3.954,2.119-2.274,1.422-3.903,3.344-4.842,5.71-1.918,4.836.382,9.684,2.04,11.783,3.103,3.933,7.322,5.07,9.35,5.617l.235.064c4.492,1.23,9.433,2.275,15.154,3.485,1.936.409,3.948.835,6.034,1.288l9.334,2.093h42.944v-11.747h-41.594l-8.192-1.825c-2.108-.458-4.139-.888-6.095-1.301-5.54-1.172-10.325-2.184-14.484-3.323l-.278-.075c-.385-.104-.88-.305-1.388-.559-1.058-.528-.942-2.079.179-2.456.006-.002.012-.004.018-.007,5.013-1.932,11.459-3.602,21.103-5.11,7.127-1.115,14.659-1.394,21.738-1.53,36.181-.693,60.94.901,69.077,1.425,6.705.432,15.537,1.185,24.398,3.195,6.414,1.455,13.202,3.669,18.656,5.448,1.501.489,2.917.951,4.223,1.365.193.061.395-.048.455-.242l3.308-10.504c.061-.193-.041-.396-.234-.457Z"/>
        </g>
        <g>
          <path class="cls-4" d="m677.938,1024.387c-1.271-.403-2.65-.853-4.111-1.329-5.684-1.854-12.758-4.162-19.7-5.736-9.669-2.194-19.103-3.002-26.242-3.462-8.256-.532-33.382-2.151-70.056-1.447-7.494.144-15.507.445-23.329,1.669-10.59,1.657-17.914,3.461-23.749,5.849-.661.271-2.258,1.058-3.954,2.119-2.274,1.422-3.903,3.344-4.842,5.71-1.918,4.836.382,9.684,2.04,11.783,3.103,3.933,7.322,5.07,9.35,5.617l.235.064c4.492,1.23,9.433,2.275,15.154,3.485,1.936.41,3.948.835,6.034,1.288l9.334,2.093h42.944v-11.747h-41.594l-8.192-1.825c-2.108-.458-4.139-.888-6.095-1.301-5.54-1.172-10.325-2.184-14.484-3.323l-.278-.075c-.385-.104-.88-.305-1.388-.559-1.058-.528-.942-2.079.179-2.456.006-.002.012-.004.018-.007,5.013-1.931,11.459-3.601,21.103-5.11,7.127-1.114,14.659-1.394,21.738-1.53,36.181-.693,60.94.901,69.077,1.425,6.705.432,15.537,1.185,24.398,3.195,6.414,1.455,13.202,3.669,18.656,5.448,1.501.49,2.917.951,4.223,1.365.193.061.395-.048.455-.242l3.308-10.504c.061-.193-.041-.396-.234-.457Z"/>
          <path class="cls-4" d="m677.938,1052.433c-1.271-.403-2.65-.853-4.111-1.329-5.684-1.854-12.758-4.162-19.7-5.736-9.669-2.194-19.103-3.002-26.242-3.462-8.256-.532-33.382-2.151-70.056-1.447-7.494.144-15.507.446-23.329,1.669-10.59,1.657-17.914,3.46-23.749,5.849-.661.271-2.258,1.059-3.954,2.119-2.274,1.422-3.903,3.344-4.842,5.71-1.918,4.836.382,9.684,2.04,11.783,3.103,3.933,7.322,5.07,9.35,5.617l.235.064c4.492,1.23,9.433,2.275,15.154,3.485,1.936.409,3.948.835,6.034,1.288l9.334,2.093h42.944v-11.747h-41.594l-8.192-1.825c-2.108-.458-4.139-.887-6.095-1.301-5.54-1.172-10.325-2.184-14.484-3.323l-.278-.075c-.385-.104-.88-.305-1.388-.559-1.058-.528-.942-2.079.179-2.456.006-.002.012-.004.018-.007,5.013-1.932,11.459-3.602,21.103-5.11,7.127-1.115,14.659-1.394,21.738-1.53,36.181-.693,60.94.901,69.077,1.425,6.705.432,15.537,1.185,24.398,3.195,6.414,1.454,13.202,3.668,18.656,5.448,1.501.49,2.917.951,4.223,1.365.193.061.395-.048.455-.242l3.308-10.504c.061-.193-.041-.396-.234-.457Z"/>
        </g>
        <g>
          <path class="cls-4" d="m677.938,1128.559c-1.271-.403-2.65-.853-4.111-1.329-5.684-1.854-12.758-4.162-19.7-5.736-9.669-2.194-19.103-3.002-26.242-3.462-8.256-.532-33.382-2.151-70.056-1.447-7.494.144-15.507.445-23.329,1.669-10.59,1.657-17.914,3.461-23.749,5.849-.661.271-2.258,1.058-3.954,2.119-2.274,1.422-3.903,3.344-4.842,5.71-1.918,4.836.382,9.684,2.04,11.783,3.103,3.933,7.322,5.07,9.35,5.617l.235.064c4.492,1.23,9.433,2.275,15.154,3.485,1.936.41,3.948.835,6.034,1.288l9.334,2.093h42.944v-11.747h-41.594l-8.192-1.825c-2.108-.458-4.139-.887-6.095-1.301-5.54-1.172-10.325-2.184-14.484-3.323l-.278-.075c-.385-.104-.88-.305-1.388-.559-1.058-.528-.942-2.079.179-2.456.006-.002.012-.004.018-.007,5.013-1.932,11.459-3.602,21.103-5.11,7.127-1.114,14.659-1.394,21.738-1.53,36.181-.693,60.94.901,69.077,1.425,6.705.432,15.537,1.185,24.398,3.195,6.414,1.455,13.202,3.668,18.656,5.448,1.501.49,2.917.951,4.223,1.365.193.061.395-.048.455-.242l3.308-10.504c.061-.193-.041-.396-.234-.457Z"/>
          <path class="cls-4" d="m677.938,1156.604c-1.271-.403-2.65-.853-4.111-1.329-5.684-1.854-12.758-4.162-19.7-5.736-9.669-2.194-19.103-3.002-26.242-3.462-8.256-.532-33.382-2.151-70.056-1.447-7.494.144-15.507.445-23.329,1.669-10.59,1.657-17.914,3.461-23.749,5.849-.661.271-2.258,1.058-3.954,2.119-2.274,1.422-3.903,3.344-4.842,5.71-1.918,4.836.382,9.684,2.04,11.783,3.103,3.933,7.322,5.07,9.35,5.617l.235.064c4.492,1.23,9.433,2.275,15.154,3.485,1.936.409,3.948.835,6.034,1.288l9.334,2.093h42.944v-11.747h-41.594l-8.192-1.825c-2.108-.458-4.139-.888-6.095-1.301-5.54-1.172-10.325-2.184-14.484-3.323l-.278-.075c-.385-.104-.88-.305-1.388-.559-1.058-.528-.942-2.079.179-2.456.006-.002.012-.004.018-.007,5.013-1.932,11.459-3.602,21.103-5.11,7.127-1.115,14.659-1.394,21.738-1.53,36.181-.693,60.94.901,69.077,1.425,6.705.432,15.537,1.185,24.398,3.195,6.414,1.454,13.202,3.668,18.656,5.448,1.501.489,2.917.951,4.223,1.365.193.061.395-.048.455-.242l3.308-10.504c.061-.193-.041-.396-.234-.457Z"/>
        </g>
        <g>
          <path class="cls-4" d="m677.938,1233.646c-1.271-.403-2.65-.853-4.111-1.329-5.684-1.854-12.758-4.162-19.7-5.736-9.669-2.194-19.103-3.002-26.242-3.462-8.256-.532-33.382-2.151-70.056-1.447-7.494.144-15.507.445-23.329,1.669-10.59,1.657-17.914,3.461-23.749,5.849-.661.271-2.258,1.058-3.954,2.119-2.274,1.422-3.903,3.344-4.842,5.71-1.918,4.836.382,9.684,2.04,11.783,3.103,3.933,7.322,5.07,9.35,5.617l.235.064c4.492,1.23,9.433,2.275,15.154,3.485,1.936.41,3.948.835,6.034,1.288l9.334,2.093h42.944v-11.747h-41.594l-8.192-1.825c-2.108-.458-4.139-.888-6.095-1.301-5.54-1.172-10.325-2.184-14.484-3.323l-.278-.075c-.385-.104-.88-.305-1.388-.559-1.058-.528-.942-2.079.179-2.456.006-.002.012-.004.018-.007,5.013-1.931,11.459-3.601,21.103-5.11,7.127-1.115,14.659-1.394,21.738-1.53,36.181-.693,60.94.901,69.077,1.425,6.705.432,15.537,1.185,24.398,3.195,6.414,1.455,13.202,3.669,18.656,5.448,1.501.49,2.917.951,4.223,1.365.193.061.395-.048.455-.242l3.308-10.504c.061-.193-.041-.396-.234-.457Z"/>
          <path class="cls-4" d="m677.938,1261.692c-1.271-.403-2.65-.853-4.111-1.329-5.684-1.854-12.758-4.162-19.7-5.736-9.669-2.194-19.103-3.002-26.242-3.462-8.256-.532-33.382-2.151-70.056-1.447-7.494.144-15.507.445-23.329,1.669-10.59,1.657-17.914,3.46-23.749,5.849-.661.271-2.258,1.059-3.954,2.119-2.274,1.422-3.903,3.344-4.842,5.71-1.918,4.836.382,9.684,2.04,11.783,3.103,3.933,7.322,5.07,9.35,5.617l.235.064c4.492,1.23,9.433,2.275,15.154,3.485,1.936.409,3.948.835,6.034,1.288l9.334,2.093h42.944v-11.747h-41.594l-8.192-1.825c-2.108-.458-4.139-.888-6.095-1.301-5.54-1.172-10.325-2.184-14.484-3.323l-.278-.075c-.385-.104-.88-.305-1.388-.559-1.058-.528-.942-2.079.179-2.456.006-.002.012-.004.018-.007,5.013-1.932,11.459-3.602,21.103-5.11,7.127-1.115,14.659-1.394,21.738-1.53,36.181-.693,60.94.901,69.077,1.425,6.705.432,15.537,1.185,24.398,3.195,6.414,1.455,13.202,3.669,18.656,5.448,1.501.489,2.917.951,4.223,1.365.193.061.395-.048.455-.242l3.308-10.504c.061-.193-.041-.396-.234-.457Z"/>
        </g>
        <g>
          <path class="cls-4" d="m677.938,1336.755c-1.271-.403-2.65-.853-4.111-1.329-5.684-1.854-12.758-4.162-19.7-5.736-9.669-2.194-19.103-3.002-26.242-3.462-8.256-.532-33.382-2.151-70.056-1.447-7.494.144-15.507.445-23.329,1.669-10.59,1.657-17.914,3.461-23.749,5.849-.661.271-2.258,1.058-3.954,2.119-2.274,1.422-3.903,3.344-4.842,5.71-1.918,4.836.382,9.684,2.04,11.783,3.103,3.933,7.322,5.07,9.35,5.617l.235.063c4.492,1.23,9.433,2.275,15.154,3.485,1.936.409,3.948.835,6.034,1.288l9.334,2.093h42.944v-11.747h-41.594l-8.192-1.825c-2.108-.458-4.139-.887-6.095-1.301-5.54-1.172-10.325-2.184-14.484-3.323l-.278-.075c-.385-.104-.88-.305-1.388-.559-1.058-.528-.942-2.079.179-2.456.006-.002.012-.004.018-.007,5.013-1.932,11.459-3.602,21.103-5.11,7.127-1.115,14.659-1.394,21.738-1.53,36.181-.693,60.94.901,69.077,1.425,6.705.432,15.537,1.185,24.398,3.195,6.414,1.454,13.202,3.668,18.656,5.448,1.501.49,2.917.952,4.223,1.365.193.061.395-.048.455-.242l3.308-10.504c.061-.193-.041-.396-.234-.457Z"/>
          <path class="cls-4" d="m677.938,1364.801c-1.271-.403-2.65-.853-4.111-1.329-5.684-1.854-12.758-4.162-19.7-5.736-9.669-2.194-19.103-3.002-26.242-3.462-8.256-.532-33.382-2.151-70.056-1.447-7.494.144-15.507.445-23.329,1.669-10.59,1.657-17.914,3.46-23.749,5.849-.661.271-2.258,1.058-3.954,2.119-2.274,1.422-3.903,3.344-4.842,5.71-1.918,4.836.382,9.684,2.04,11.783,3.103,3.933,7.322,5.07,9.35,5.618l.235.064c4.492,1.23,9.433,2.275,15.154,3.485,1.936.41,3.948.835,6.034,1.288l9.334,2.093h42.944v-11.747h-41.594l-8.192-1.825c-2.108-.458-4.139-.888-6.095-1.301-5.54-1.172-10.325-2.184-14.484-3.323l-.278-.075c-.385-.104-.88-.305-1.388-.559-1.058-.528-.942-2.079.179-2.456.006-.002.012-.004.018-.007,5.013-1.932,11.459-3.601,21.103-5.11,7.127-1.115,14.659-1.394,21.738-1.53,36.181-.693,60.94.901,69.077,1.425,6.705.432,15.537,1.185,24.398,3.195,6.414,1.455,13.202,3.668,18.656,5.448,1.501.49,2.917.951,4.223,1.365.193.061.395-.048.455-.242l3.308-10.504c.061-.193-.041-.396-.234-.457Z"/>
        </g>
        <g>
          <path class="cls-4" d="m677.938,1441.728c-1.271-.403-2.65-.853-4.111-1.329-5.684-1.854-12.758-4.162-19.7-5.736-9.669-2.194-19.103-3.002-26.242-3.462-8.256-.532-33.382-2.151-70.056-1.447-7.494.144-15.507.445-23.329,1.669-10.59,1.657-17.914,3.46-23.749,5.849-.661.271-2.258,1.058-3.954,2.119-2.274,1.423-3.903,3.344-4.842,5.71-1.918,4.836.382,9.684,2.04,11.783,3.103,3.933,7.322,5.07,9.35,5.617l.235.063c4.492,1.23,9.433,2.275,15.154,3.485,1.936.409,3.948.835,6.034,1.288l9.334,2.093h42.944v-11.746h-41.594l-8.192-1.825c-2.108-.458-4.139-.888-6.095-1.301-5.54-1.172-10.325-2.184-14.484-3.323l-.278-.075c-.385-.104-.88-.305-1.388-.559-1.058-.528-.942-2.079.179-2.456.006-.002.012-.004.018-.007,5.013-1.932,11.459-3.602,21.103-5.11,7.127-1.114,14.659-1.394,21.738-1.53,36.181-.693,60.94.901,69.077,1.425,6.705.432,15.537,1.185,24.398,3.195,6.414,1.455,13.202,3.668,18.656,5.448,1.501.49,2.917.951,4.223,1.365.193.061.395-.048.455-.242l3.308-10.504c.061-.193-.041-.396-.234-.457Z"/>
          <path class="cls-4" d="m677.938,1469.774c-1.271-.403-2.65-.853-4.111-1.329-5.684-1.854-12.758-4.162-19.7-5.736-9.669-2.194-19.103-3.002-26.242-3.462-8.256-.532-33.382-2.151-70.056-1.447-7.494.144-15.507.445-23.329,1.669-10.59,1.657-17.914,3.46-23.749,5.849-.661.271-2.258,1.058-3.954,2.119-2.274,1.422-3.903,3.344-4.842,5.71-1.918,4.836.382,9.684,2.04,11.783,3.103,3.933,7.322,5.07,9.35,5.618l.235.063c4.492,1.23,9.433,2.275,15.154,3.485,1.936.409,3.948.835,6.034,1.288l9.334,2.093h42.944v-11.747h-41.594l-8.192-1.825c-2.108-.458-4.139-.888-6.095-1.301-5.54-1.172-10.325-2.184-14.484-3.323l-.278-.075c-.385-.104-.88-.305-1.388-.559-1.058-.528-.942-2.079.179-2.456.006-.002.012-.004.018-.007,5.013-1.931,11.459-3.601,21.103-5.11,7.127-1.115,14.659-1.394,21.738-1.53,36.181-.693,60.94.901,69.077,1.425,6.705.432,15.537,1.185,24.398,3.195,6.414,1.455,13.202,3.668,18.656,5.448,1.501.49,2.917.951,4.223,1.365.193.061.395-.048.455-.242l3.308-10.504c.061-.193-.041-.396-.234-.457Z"/>
        </g>
        <g>
          <path class="cls-4" d="m677.938,1546.701c-1.271-.403-2.65-.853-4.111-1.329-5.684-1.854-12.758-4.162-19.7-5.736-9.669-2.194-19.103-3.002-26.242-3.462-8.256-.532-33.382-2.151-70.056-1.447-7.494.144-15.507.445-23.329,1.669-10.59,1.657-17.914,3.46-23.749,5.849-.661.271-2.258,1.058-3.954,2.119-2.274,1.422-3.903,3.344-4.842,5.71-1.918,4.836.382,9.684,2.04,11.783,3.103,3.933,7.322,5.07,9.35,5.618l.235.063c4.492,1.23,9.433,2.275,15.154,3.485,1.936.409,3.948.835,6.034,1.288l9.334,2.093h42.944v-11.746h-41.594l-8.192-1.825c-2.108-.458-4.139-.888-6.095-1.301-5.54-1.172-10.325-2.184-14.484-3.323l-.278-.075c-.385-.104-.88-.305-1.388-.559-1.058-.528-.942-2.079.179-2.456.006-.002.012-.004.018-.007,5.013-1.932,11.459-3.602,21.103-5.11,7.127-1.115,14.659-1.394,21.738-1.53,36.181-.693,60.94.901,69.077,1.425,6.705.432,15.537,1.184,24.398,3.195,6.414,1.454,13.202,3.668,18.656,5.448,1.501.49,2.917.951,4.223,1.365.193.061.395-.048.455-.242l3.308-10.504c.061-.193-.041-.396-.234-.457Z"/>
          <path class="cls-4" d="m677.938,1574.746c-1.271-.403-2.65-.853-4.111-1.329-5.684-1.854-12.758-4.162-19.7-5.736-9.669-2.194-19.103-3.002-26.242-3.462-8.256-.532-33.382-2.151-70.056-1.447-7.494.144-15.507.445-23.329,1.669-10.59,1.657-17.914,3.46-23.749,5.849-.661.271-2.258,1.059-3.954,2.119-2.274,1.422-3.903,3.344-4.842,5.71-1.918,4.836.382,9.684,2.04,11.783,3.103,3.933,7.322,5.07,9.35,5.618l.235.064c4.492,1.23,9.433,2.275,15.154,3.485,1.936.409,3.948.835,6.034,1.288l9.334,2.093h42.944v-11.747h-41.594l-8.192-1.825c-2.108-.458-4.139-.888-6.095-1.301-5.54-1.172-10.325-2.184-14.484-3.323l-.278-.075c-.385-.104-.88-.305-1.388-.559-1.058-.528-.942-2.079.179-2.456.006-.002.012-.004.018-.007,5.013-1.932,11.459-3.602,21.103-5.11,7.127-1.115,14.659-1.394,21.738-1.53,36.181-.693,60.94.901,69.077,1.425,6.705.432,15.537,1.185,24.398,3.195,6.414,1.454,13.202,3.668,18.656,5.448,1.501.49,2.917.951,4.223,1.365.193.061.395-.048.455-.242l3.308-10.504c.061-.193-.041-.396-.234-.457Z"/>
        </g>
        <g>
          <path class="cls-4" d="m677.938,1650.741c-1.271-.403-2.65-.853-4.111-1.329-5.684-1.854-12.758-4.162-19.7-5.736-9.669-2.194-19.103-3.002-26.242-3.462-8.256-.532-33.382-2.151-70.056-1.447-7.494.144-15.507.445-23.329,1.669-10.59,1.657-17.914,3.461-23.749,5.849-.661.271-2.258,1.059-3.954,2.119-2.274,1.422-3.903,3.344-4.842,5.71-1.918,4.836.382,9.684,2.04,11.783,3.103,3.933,7.322,5.07,9.35,5.618l.235.064c4.492,1.23,9.433,2.275,15.154,3.485,1.936.409,3.948.835,6.034,1.288l9.334,2.093h42.944v-11.746h-41.594l-8.192-1.825c-2.108-.458-4.139-.888-6.095-1.301-5.54-1.172-10.325-2.184-14.484-3.323l-.278-.075c-.385-.104-.88-.305-1.388-.559-1.058-.528-.942-2.079.179-2.456.006-.002.012-.004.018-.007,5.013-1.932,11.459-3.602,21.103-5.11,7.127-1.115,14.659-1.394,21.738-1.53,36.181-.693,60.94.901,69.077,1.425,6.705.432,15.537,1.185,24.398,3.195,6.414,1.454,13.202,3.668,18.656,5.448,1.501.49,2.917.951,4.223,1.365.193.061.395-.048.455-.242l3.308-10.504c.061-.193-.041-.396-.234-.457Z"/>
          <path class="cls-4" d="m677.938,1678.787c-1.271-.403-2.65-.853-4.111-1.329-5.684-1.854-12.758-4.162-19.7-5.736-9.669-2.194-19.103-3.002-26.242-3.462-8.256-.532-33.382-2.151-70.056-1.447-7.494.144-15.507.445-23.329,1.669-10.59,1.657-17.914,3.461-23.749,5.849-.661.271-2.258,1.058-3.954,2.119-2.274,1.422-3.903,3.344-4.842,5.71-1.918,4.836.382,9.684,2.04,11.783,3.103,3.933,7.322,5.07,9.35,5.618l.235.063c4.492,1.23,9.433,2.275,15.154,3.485,1.936.409,3.948.835,6.034,1.288l9.334,2.093h42.944v-11.746h-41.594l-8.192-1.825c-2.108-.458-4.139-.887-6.095-1.301-5.54-1.172-10.325-2.184-14.484-3.323l-.278-.075c-.385-.104-.88-.305-1.388-.559-1.058-.528-.942-2.079.179-2.456.006-.002.012-.004.018-.007,5.013-1.932,11.459-3.602,21.103-5.11,7.127-1.115,14.659-1.394,21.738-1.53,36.181-.693,60.94.901,69.077,1.425,6.705.432,15.537,1.185,24.398,3.195,6.414,1.454,13.202,3.668,18.656,5.448,1.501.49,2.917.952,4.223,1.365.193.061.395-.048.455-.242l3.308-10.504c.061-.193-.041-.396-.234-.457Z"/>
        </g>
        <g>
          <path class="cls-4" d="m677.938,1754.782c-1.271-.403-2.65-.853-4.111-1.329-5.684-1.854-12.758-4.162-19.7-5.736-9.669-2.194-19.103-3.002-26.242-3.462-8.256-.532-33.382-2.151-70.056-1.447-7.494.144-15.507.445-23.329,1.669-10.59,1.657-17.914,3.461-23.749,5.849-.661.271-2.258,1.058-3.954,2.119-2.274,1.422-3.903,3.344-4.842,5.71-1.918,4.836.382,9.684,2.04,11.783,3.103,3.933,7.322,5.07,9.35,5.618l.235.063c4.492,1.23,9.433,2.275,15.154,3.485,1.936.409,3.948.835,6.034,1.288l9.334,2.093h42.944v-11.747h-41.594l-8.192-1.825c-2.108-.458-4.139-.887-6.095-1.301-5.54-1.172-10.325-2.184-14.484-3.323l-.278-.075c-.385-.104-.88-.305-1.388-.559-1.058-.528-.942-2.079.179-2.456.006-.002.012-.004.018-.007,5.013-1.932,11.459-3.602,21.103-5.11,7.127-1.115,14.659-1.394,21.738-1.53,36.181-.693,60.94.901,69.077,1.425,6.705.432,15.537,1.185,24.398,3.195,6.414,1.454,13.202,3.668,18.656,5.448,1.501.49,2.917.952,4.223,1.365.193.061.395-.048.455-.242l3.308-10.504c.061-.193-.041-.396-.234-.457Z"/>
          <path class="cls-4" d="m677.938,1782.828c-1.271-.403-2.65-.853-4.111-1.329-5.684-1.854-12.758-4.162-19.7-5.736-9.669-2.194-19.103-3.002-26.242-3.462-8.256-.532-33.382-2.151-70.056-1.447-7.494.144-15.507.445-23.329,1.669-10.59,1.657-17.914,3.461-23.749,5.849-.661.271-2.258,1.058-3.954,2.119-2.274,1.422-3.903,3.344-4.842,5.71-1.918,4.836.382,9.684,2.04,11.783,3.103,3.933,7.322,5.07,9.35,5.618l.235.064c4.492,1.23,9.433,2.275,15.154,3.485,1.936.41,3.948.835,6.034,1.288l9.334,2.093h42.944v-11.747h-41.594l-8.192-1.825c-2.108-.458-4.139-.888-6.095-1.301-5.54-1.172-10.325-2.184-14.484-3.323l-.278-.075c-.385-.104-.88-.305-1.388-.559-1.058-.528-.942-2.079.179-2.456.006-.002.012-.004.018-.007,5.013-1.932,11.459-3.602,21.103-5.11,7.127-1.115,14.659-1.394,21.738-1.53,36.181-.693,60.94.901,69.077,1.425,6.705.432,15.537,1.185,24.398,3.195,6.414,1.455,13.202,3.668,18.656,5.448,1.501.49,2.917.951,4.223,1.365.193.061.395-.048.455-.242l3.308-10.504c.061-.193-.041-.396-.234-.457Z"/>
        </g>
        <g>
          <path class="cls-4" d="m677.938,1858.823c-1.271-.403-2.65-.853-4.111-1.329-5.684-1.854-12.758-4.162-19.7-5.736-9.669-2.194-19.103-3.002-26.242-3.462-8.256-.532-33.382-2.151-70.056-1.447-7.494.144-15.507.445-23.329,1.669-10.59,1.657-17.914,3.46-23.749,5.849-.661.271-2.258,1.058-3.954,2.119-2.274,1.422-3.903,3.344-4.842,5.71-1.918,4.836.382,9.684,2.04,11.783,3.103,3.933,7.322,5.07,9.35,5.618l.235.064c4.492,1.23,9.433,2.275,15.154,3.485,1.936.41,3.948.835,6.034,1.288l9.334,2.093h42.944v-11.747h-41.594l-8.192-1.825c-2.108-.458-4.139-.887-6.095-1.301-5.54-1.172-10.325-2.184-14.484-3.323l-.278-.075c-.385-.104-.88-.305-1.388-.559-1.058-.528-.942-2.079.179-2.456.006-.002.012-.004.018-.007,5.013-1.932,11.459-3.602,21.103-5.11,7.127-1.115,14.659-1.394,21.738-1.53,36.181-.693,60.94.901,69.077,1.425,6.705.432,15.537,1.185,24.398,3.195,6.414,1.455,13.202,3.668,18.656,5.448,1.501.49,2.917.951,4.223,1.365.193.061.395-.048.455-.242l3.308-10.504c.061-.193-.041-.396-.234-.457Z"/>
          <path class="cls-4" d="m677.938,1886.869c-1.271-.403-2.65-.853-4.111-1.329-5.684-1.854-12.758-4.162-19.7-5.736-9.669-2.194-19.103-3.002-26.242-3.462-8.256-.532-33.382-2.151-70.056-1.447-7.494.144-15.507.445-23.329,1.669-10.59,1.657-17.914,3.461-23.749,5.849-.661.271-2.258,1.058-3.954,2.119-2.274,1.423-3.903,3.344-4.842,5.71-1.918,4.836.382,9.684,2.04,11.783,3.103,3.933,7.322,5.07,9.35,5.617l.235.064c4.492,1.23,9.433,2.275,15.154,3.485,1.936.41,3.948.835,6.034,1.288l9.334,2.093h42.944v-11.747h-41.594l-8.192-1.825c-2.108-.458-4.139-.887-6.095-1.301-5.54-1.172-10.325-2.184-14.484-3.323l-.278-.075c-.385-.104-.88-.305-1.388-.559-1.058-.528-.942-2.079.179-2.456.006-.002.012-.004.018-.007,5.013-1.932,11.459-3.602,21.103-5.11,7.127-1.115,14.659-1.394,21.738-1.53,36.181-.693,60.94.901,69.077,1.425,6.705.432,15.537,1.185,24.398,3.195,6.414,1.455,13.202,3.669,18.656,5.448,1.501.49,2.917.951,4.223,1.365.193.061.395-.048.455-.242l3.308-10.504c.061-.193-.041-.396-.234-.457Z"/>
        </g>
        <g>
          <path class="cls-4" d="m677.938,1962.864c-1.271-.403-2.65-.853-4.111-1.329-5.684-1.854-12.758-4.162-19.7-5.736-9.669-2.194-19.103-3.002-26.242-3.462-8.256-.532-33.382-2.151-70.056-1.447-7.494.144-15.507.445-23.329,1.669-10.59,1.657-17.914,3.461-23.749,5.849-.661.271-2.258,1.058-3.954,2.119-2.274,1.422-3.903,3.344-4.842,5.71-1.918,4.836.382,9.684,2.04,11.783,3.103,3.933,7.322,5.07,9.35,5.617l.235.064c4.492,1.23,9.433,2.275,15.154,3.485,1.936.41,3.948.835,6.034,1.288l9.334,2.093h42.944v-11.747h-41.594l-8.192-1.825c-2.108-.458-4.139-.887-6.095-1.301-5.54-1.172-10.325-2.184-14.484-3.323l-.278-.075c-.385-.104-.88-.305-1.388-.559-1.058-.528-.942-2.079.179-2.456.006-.002.012-.004.018-.007,5.013-1.932,11.459-3.602,21.103-5.11,7.127-1.115,14.659-1.394,21.738-1.53,36.181-.693,60.94.901,69.077,1.425,6.705.432,15.537,1.185,24.398,3.195,6.414,1.455,13.202,3.669,18.656,5.448,1.501.49,2.917.952,4.223,1.365.193.061.395-.048.455-.242l3.308-10.504c.061-.193-.041-.396-.234-.457Z"/>
          <path class="cls-4" d="m677.938,1990.91c-1.271-.403-2.65-.853-4.111-1.329-5.684-1.854-12.758-4.162-19.7-5.736-9.669-2.194-19.103-3.002-26.242-3.462-8.256-.532-33.382-2.151-70.056-1.447-7.494.144-15.507.445-23.329,1.669-10.59,1.657-17.914,3.461-23.749,5.849-.661.271-2.258,1.058-3.954,2.119-2.274,1.422-3.903,3.344-4.842,5.71-1.918,4.836.382,9.684,2.04,11.783,3.103,3.933,7.322,5.07,9.35,5.617l.235.064c4.492,1.23,9.433,2.275,15.154,3.485,1.936.409,3.948.835,6.034,1.288l9.334,2.093h42.944v-11.747h-41.594l-8.192-1.825c-2.108-.458-4.139-.888-6.095-1.301-5.54-1.172-10.325-2.184-14.484-3.323l-.278-.075c-.385-.104-.88-.305-1.388-.559-1.058-.528-.942-2.079.179-2.456.006-.002.012-.004.018-.007,5.013-1.932,11.459-3.602,21.103-5.11,7.127-1.114,14.659-1.394,21.738-1.53,36.181-.693,60.94.901,69.077,1.425,6.705.432,15.537,1.185,24.398,3.195,6.414,1.455,13.202,3.668,18.656,5.448,1.501.49,2.917.951,4.223,1.365.193.061.395-.048.455-.242l3.308-10.504c.061-.193-.041-.396-.234-.457Z"/>
        </g>
        <g>
          <path class="cls-4" d="m677.938,2067.837c-1.271-.403-2.65-.853-4.111-1.329-5.684-1.854-12.758-4.162-19.7-5.736-9.669-2.194-19.103-3.002-26.242-3.462-8.256-.532-33.382-2.151-70.056-1.447-7.494.144-15.507.446-23.329,1.669-10.59,1.657-17.914,3.46-23.749,5.849-.661.271-2.258,1.058-3.954,2.119-2.274,1.422-3.903,3.344-4.842,5.71-1.918,4.836.382,9.684,2.04,11.783,3.103,3.933,7.322,5.07,9.35,5.617l.235.064c4.492,1.23,9.433,2.275,15.154,3.485,1.936.409,3.948.835,6.034,1.288l9.334,2.093h42.944v-11.747h-41.594l-8.192-1.825c-2.108-.458-4.139-.888-6.095-1.301-5.54-1.172-10.325-2.184-14.484-3.323l-.278-.075c-.385-.104-.88-.305-1.388-.559-1.058-.528-.942-2.079.179-2.456.006-.002.012-.004.018-.007,5.013-1.932,11.459-3.602,21.103-5.11,7.127-1.115,14.659-1.394,21.738-1.53,36.181-.693,60.94.901,69.077,1.425,6.705.432,15.537,1.185,24.398,3.195,6.414,1.455,13.202,3.668,18.656,5.448,1.501.49,2.917.951,4.223,1.365.193.061.395-.048.455-.242l3.308-10.504c.061-.193-.041-.396-.234-.457Z"/>
          <path class="cls-4" d="m677.938,2095.882c-1.271-.403-2.65-.853-4.111-1.329-5.684-1.854-12.758-4.162-19.7-5.736-9.669-2.194-19.103-3.002-26.242-3.462-8.256-.532-33.382-2.151-70.056-1.447-7.494.144-15.507.445-23.329,1.669-10.59,1.657-17.914,3.461-23.749,5.849-.661.271-2.258,1.058-3.954,2.119-2.274,1.422-3.903,3.344-4.842,5.71-1.918,4.836.382,9.684,2.04,11.783,3.103,3.933,7.322,5.07,9.35,5.618l.235.063c4.492,1.23,9.433,2.275,15.154,3.485,1.936.409,3.948.835,6.034,1.288l9.334,2.093h42.944v-11.746h-41.594l-8.192-1.825c-2.108-.458-4.139-.888-6.095-1.301-5.54-1.172-10.325-2.184-14.484-3.323l-.278-.075c-.385-.104-.88-.305-1.388-.559-1.058-.528-.942-2.079.179-2.456.006-.002.012-.004.018-.007,5.013-1.931,11.459-3.602,21.103-5.11,7.127-1.115,14.659-1.394,21.738-1.53,36.181-.693,60.94.901,69.077,1.425,6.705.432,15.537,1.184,24.398,3.195,6.414,1.454,13.202,3.668,18.656,5.448,1.501.49,2.917.951,4.223,1.365.193.061.395-.048.455-.242l3.308-10.504c.061-.193-.041-.396-.234-.457Z"/>
        </g>
        <g>
          <path class="cls-4" d="m677.955,87.102c-1.271-.403-2.649-.853-4.11-1.329-5.684-1.854-12.758-4.162-19.7-5.736-9.669-2.194-19.103-3.002-26.242-3.462-8.256-.532-33.382-2.151-70.055-1.447-7.494.144-15.508.445-23.329,1.669-10.59,1.657-17.914,3.461-23.749,5.849-.661.271-2.258,1.058-3.954,2.119-2.274,1.422-3.903,3.344-4.842,5.71-1.918,4.836.382,9.684,2.04,11.783,3.103,3.933,7.322,5.07,9.35,5.617l.235.063c4.492,1.23,9.433,2.275,15.154,3.485,1.936.409,3.948.835,6.034,1.288l9.334,2.093h42.944v-11.747h-41.594l-8.192-1.825c-2.108-.458-4.14-.887-6.095-1.301-5.54-1.172-10.325-2.184-14.484-3.323l-.278-.075c-.385-.104-.88-.305-1.388-.559-1.058-.528-.943-2.079.178-2.456.006-.002.012-.004.018-.007,5.013-1.932,11.459-3.602,21.103-5.11,7.127-1.115,14.659-1.394,21.738-1.53,36.181-.693,60.94.901,69.077,1.425,6.705.432,15.537,1.185,24.398,3.195,6.414,1.454,13.202,3.668,18.656,5.448,1.501.49,2.917.952,4.223,1.365.194.061.395-.048.455-.242l3.308-10.504c.061-.193-.041-.396-.234-.457Z"/>
          <path class="cls-4" d="m677.938,108.297c-1.271-.403-2.65-.853-4.111-1.329-5.684-1.854-12.758-4.162-19.7-5.736-9.669-2.194-19.103-3.002-26.242-3.462-8.256-.532-33.382-2.151-70.056-1.447-7.494.144-15.507.446-23.329,1.669-10.59,1.657-17.914,3.46-23.749,5.849-.661.271-2.258,1.058-3.954,2.119-2.274,1.422-3.903,3.344-4.842,5.71-1.918,4.836.382,9.684,2.04,11.783,3.103,3.933,7.322,5.07,9.35,5.617l.235.064c4.492,1.23,9.433,2.275,15.154,3.485,1.936.41,3.948.835,6.034,1.288l9.334,2.093h42.944v-11.747h-41.594l-8.192-1.825c-2.108-.458-4.139-.888-6.095-1.301-5.54-1.172-10.325-2.184-14.484-3.323l-.278-.075c-.385-.104-.88-.305-1.388-.559-1.058-.528-.942-2.079.179-2.456.006-.002.012-.004.018-.007,5.013-1.932,11.459-3.601,21.103-5.11,7.127-1.115,14.659-1.394,21.738-1.53,36.181-.693,60.94.901,69.077,1.425,6.705.432,15.537,1.185,24.398,3.195,6.414,1.454,13.202,3.668,18.656,5.448,1.501.49,2.917.951,4.223,1.365.193.061.395-.048.455-.242l3.308-10.504c.061-.193-.041-.396-.234-.457Z"/>
        </g>
      </g>
      <text/>
    </g>
  </g>
  <g id="Layer_2" data-name="Layer 2">
    <text class="cls-8" transform="translate(845.714 183.408)"><tspan class="cls-6"><tspan x="0" y="0">Submission </tspan><tspan class="cls-7" x="251.146" y="0">F</tspan><tspan x="273.947" y="0">o</tspan><tspan class="cls-2" x="301.397" y="0">r</tspan><tspan class="cls-14" x="317.947" y="0">m: </tspan><tspan class="cls-3" x="380.595" y="0">R</tspan><tspan x="407.695" y="0">ed</tspan><tspan class="cls-13" x="460.944" y="0">o</tspan><tspan x="487.694" y="0">x po</tspan><tspan class="cls-9" x="577.343" y="0">t</tspan><tspan x="593.593" y="0">e</tspan><tspan class="cls-16" x="618.643" y="0">n</tspan><tspan class="cls-14" x="646.192" y="0">tial d</tspan><tspan class="cls-16" x="749.14" y="0">a</tspan><tspan x="773.04" y="0">ta</tspan></tspan><tspan class="cls-18" x="0" y="120">P</tspan><tspan class="cls-14" x="26.351" y="120">lease e</tspan><tspan class="cls-16" x="167.798" y="120">n</tspan><tspan class="cls-9" x="195.348" y="120">t</tspan><tspan class="cls-14" x="211.598" y="120">er </tspan><tspan class="cls-1" x="263.596" y="120">e</tspan><tspan x="288.497" y="120">xpe</tspan><tspan class="cls-2" x="365.145" y="120">r</tspan><tspan x="381.695" y="120">ime</tspan><tspan class="cls-16" x="460.144" y="120">n</tspan><tspan x="487.694" y="120">tal details and p</tspan><tspan class="cls-19" x="817.638" y="120">r</tspan><tspan x="833.488" y="120">ess submit </tspan><tspan class="cls-9" x="0" y="180">t</tspan><tspan x="16.25" y="180">o </tspan><tspan class="cls-9" x="54.299" y="180">c</tspan><tspan x="76.399" y="180">o</tspan><tspan class="cls-16" x="103.849" y="180">n</tspan><tspan class="cls-14" x="131.399" y="180">t</tspan><tspan class="cls-2" x="147.948" y="180">r</tspan><tspan x="164.498" y="180">ibu</tspan><tspan class="cls-9" x="232.197" y="180">t</tspan><tspan class="cls-14" x="248.447" y="180">e </tspan><tspan class="cls-9" x="284.096" y="180">t</tspan><tspan x="300.346" y="180">o </tspan><tspan class="cls-12" x="338.395" y="180">P</tspan><tspan class="cls-19" x="364.195" y="180">r</tspan><tspan x="380.045" y="180">ot</tspan><tspan class="cls-3" x="424.045" y="180">R</tspan><tspan class="cls-14" x="451.145" y="180">e</tspan><tspan class="cls-2" x="476.194" y="180">D</tspan><tspan class="cls-13" x="509.693" y="180">o</tspan><tspan x="536.443" y="180">x. Submissions will be </tspan><tspan class="cls-19" x="0" y="240">r</tspan><tspan class="cls-14" x="15.85" y="240">evie</tspan><tspan class="cls-20" x="101.698" y="240">w</tspan><tspan x="137.998" y="240">ed and app</tspan><tspan class="cls-19" x="373.494" y="240">r</tspan><tspan x="389.344" y="240">op</tspan><tspan class="cls-2" x="445.243" y="240">r</tspan><tspan class="cls-14" x="461.793" y="240">i</tspan><tspan class="cls-16" x="473.492" y="240">a</tspan><tspan class="cls-9" x="497.392" y="240">t</tspan><tspan x="513.642" y="240">ely handle</tspan><tspan class="cls-20" x="729.289" y="240">d</tspan><tspan class="cls-10" x="756.988" y="240">. </tspan><tspan x="0" y="360">~</tspan><tspan class="cls-15" x="29.8" y="360">T</tspan><tspan class="cls-10" x="54.3" y="360">hank </tspan><tspan class="cls-20" x="167.948" y="360">y</tspan><tspan x="190.998" y="360">o</tspan><tspan class="cls-17" x="218.448" y="360">u</tspan><tspan class="cls-10" x="245.598" y="360">,</tspan><tspan x="0" y="420"> </tspan><tspan class="cls-11" x="0" y="480" xml:space="preserve">							</tspan><tspan class="cls-21" x="252" y="480">T</tspan><tspan x="273.3" y="480">eam </tspan><tspan class="cls-12" x="374.749" y="480">P</tspan><tspan class="cls-19" x="400.549" y="480">r</tspan><tspan x="416.399" y="480">ot</tspan><tspan class="cls-3" x="460.399" y="480">R</tspan><tspan x="487.499" y="480">e</tspan><tspan class="cls-2" x="512.548" y="480">D</tspan><tspan class="cls-13" x="546.048" y="480">o</tspan><tspan x="572.798" y="480" xml:space="preserve">x    </tspan></text>
  </g>
</svg>