<?xml version="1.0" encoding="UTF-8"?>
<svg id="_ÎÓÈ_1" data-name="—ÎÓÈ_1" xmlns="http://www.w3.org/2000/svg" viewBox="0 0 2146.321 2212.324">
  <defs>
    <style>
      .cls-1, .cls-2 {
        stroke: #000;
        stroke-miterlimit: 10;
      }

      .cls-2 {
        fill: #fff;
        stroke-width: 4px;
      }
    </style>
  </defs>
  <path class="cls-2" d="m587.007,30.153h1442.544c27.921,0,50.589,22.668,50.589,50.589v2023.968c0,27.921-22.668,50.589-50.589,50.589H587.007V30.153h0Z"/>
  <g>
    <rect class="cls-1" x="664.947" y="75.3" width="52.176" height="52.176"/>
    <polygon class="cls-1" points="705.011 179.652 664.947 179.652 664.947 220.647 664.947 231.827 717.123 231.827 717.123 179.652 705.011 179.652"/>
    <rect class="cls-1" x="664.947" y="284.003" width="52.176" height="52.176"/>
    <rect class="cls-1" x="664.947" y="388.355" width="52.176" height="52.176"/>
    <rect class="cls-1" x="664.947" y="492.706" width="52.176" height="52.176"/>
    <rect class="cls-1" x="664.947" y="597.057" width="52.176" height="52.176"/>
    <rect class="cls-1" x="664.947" y="701.409" width="52.176" height="52.176"/>
    <rect class="cls-1" x="664.947" y="805.76" width="52.176" height="52.176"/>
    <rect class="cls-1" x="664.947" y="910.112" width="52.176" height="52.176"/>
    <rect class="cls-1" x="664.947" y="1014.463" width="52.176" height="52.176"/>
    <rect class="cls-1" x="664.947" y="1118.814" width="52.176" height="52.176"/>
    <rect class="cls-1" x="664.947" y="1223.166" width="52.176" height="52.176"/>
    <rect class="cls-1" x="664.947" y="1327.517" width="52.176" height="52.176"/>
    <rect class="cls-1" x="664.947" y="1431.869" width="52.176" height="52.176"/>
    <rect class="cls-1" x="664.947" y="1536.22" width="52.176" height="52.176"/>
    <rect class="cls-1" x="664.947" y="1640.572" width="52.176" height="52.176"/>
    <rect class="cls-1" x="664.947" y="1744.923" width="52.176" height="52.176"/>
    <rect class="cls-1" x="664.947" y="1849.274" width="52.176" height="52.176"/>
    <rect class="cls-1" x="664.947" y="1953.626" width="52.176" height="52.176"/>
    <rect class="cls-1" x="664.947" y="2057.977" width="52.176" height="52.176"/>
    <g>
      <path class="cls-1" d="m677.947,192.074c-1.271-.403-2.649-.853-4.11-1.329-5.684-1.854-12.758-4.162-19.7-5.736-9.669-2.194-19.103-3.002-26.242-3.462-8.256-.532-33.382-2.151-70.056-1.447-7.494.144-15.508.446-23.329,1.669-10.59,1.657-17.914,3.461-23.749,5.849-.661.271-2.258,1.058-3.954,2.119-2.274,1.422-3.903,3.344-4.842,5.71-1.918,4.836.382,9.684,2.04,11.783,3.103,3.933,7.322,5.07,9.35,5.617l.235.063c4.492,1.23,9.433,2.275,15.154,3.485,1.936.409,3.948.835,6.034,1.288l9.334,2.093h42.944v-11.747h-41.594l-8.192-1.825c-2.108-.458-4.14-.887-6.095-1.301-5.54-1.172-10.325-2.184-14.484-3.323l-.278-.075c-.385-.104-.88-.305-1.388-.559-1.058-.528-.943-2.079.178-2.456.006-.002.012-.004.018-.007,5.013-1.932,11.459-3.602,21.103-5.11,7.127-1.114,14.659-1.394,21.738-1.53,36.181-.693,60.94.901,69.077,1.425,6.705.432,15.537,1.185,24.398,3.195,6.414,1.455,13.202,3.668,18.656,5.448,1.501.49,2.917.951,4.223,1.365.193.061.395-.048.455-.242l3.308-10.504c.061-.193-.041-.396-.234-.457Z"/>
      <path class="cls-1" d="m677.929,215.133c-1.271-.403-2.649-.853-4.11-1.329-5.684-1.854-12.758-4.162-19.7-5.736-9.669-2.194-19.103-3.002-26.242-3.462-8.256-.532-33.382-2.151-70.055-1.447-7.495.144-15.508.445-23.329,1.669-10.59,1.657-17.914,3.461-23.749,5.849-.661.271-2.258,1.058-3.954,2.119-2.274,1.422-3.903,3.344-4.842,5.71-1.918,4.836.382,9.684,2.04,11.783,3.103,3.933,7.322,5.07,9.35,5.617l.235.064c4.492,1.23,9.433,2.275,15.154,3.485,1.936.41,3.948.835,6.034,1.288l9.334,2.093h42.944v-11.747h-41.594l-8.192-1.825c-2.108-.458-4.14-.887-6.095-1.301-5.54-1.172-10.325-2.184-14.484-3.323l-.278-.075c-.385-.104-.88-.305-1.388-.559-1.058-.528-.942-2.079.179-2.456.006-.002.012-.004.018-.007,5.013-1.932,11.459-3.602,21.103-5.11,7.127-1.115,14.659-1.394,21.738-1.53,36.181-.693,60.94.901,69.077,1.425,6.704.432,15.537,1.185,24.398,3.195,6.414,1.455,13.202,3.668,18.656,5.448,1.501.49,2.917.951,4.223,1.365.194.061.395-.048.455-.242l3.308-10.504c.061-.193-.041-.396-.234-.457Z"/>
    </g>
    <g>
      <path class="cls-1" d="m677.964,295.357c-1.271-.403-2.649-.853-4.11-1.329-5.684-1.854-12.757-4.162-19.7-5.736-9.669-2.194-19.103-3.002-26.242-3.462-8.256-.532-33.382-2.151-70.055-1.447-7.495.144-15.508.445-23.329,1.669-10.59,1.657-17.914,3.461-23.749,5.849-.661.271-2.258,1.058-3.954,2.119-2.274,1.422-3.903,3.344-4.842,5.71-1.918,4.836.382,9.684,2.04,11.783,3.103,3.933,7.322,5.07,9.35,5.617l.235.064c4.492,1.23,9.433,2.275,15.154,3.485,1.936.409,3.948.835,6.034,1.288l9.334,2.093h42.944v-11.746h-41.594l-8.192-1.825c-2.108-.458-4.14-.888-6.095-1.301-5.54-1.172-10.325-2.184-14.484-3.323l-.278-.075c-.385-.104-.88-.305-1.388-.559-1.058-.528-.943-2.079.179-2.456.006-.002.012-.004.018-.007,5.013-1.932,11.459-3.601,21.103-5.11,7.127-1.115,14.659-1.394,21.738-1.53,36.181-.693,60.94.901,69.077,1.425,6.705.432,15.537,1.185,24.398,3.195,6.414,1.455,13.202,3.669,18.656,5.448,1.501.489,2.917.951,4.223,1.365.193.061.395-.048.455-.242l3.308-10.504c.061-.193-.041-.396-.234-.457Z"/>
      <path class="cls-1" d="m677.947,320.279c-1.271-.403-2.649-.853-4.11-1.329-5.684-1.854-12.758-4.162-19.7-5.736-9.669-2.194-19.103-3.002-26.242-3.462-8.256-.532-33.382-2.151-70.056-1.447-7.494.144-15.508.445-23.329,1.669-10.59,1.657-17.914,3.461-23.749,5.849-.661.271-2.258,1.058-3.954,2.119-2.274,1.422-3.903,3.344-4.842,5.71-1.918,4.836.382,9.684,2.04,11.783,3.103,3.933,7.322,5.07,9.35,5.617l.235.064c4.492,1.23,9.433,2.275,15.154,3.485,1.936.409,3.948.835,6.034,1.288l9.334,2.093h42.944v-11.747h-41.594l-8.192-1.825c-2.108-.458-4.14-.887-6.095-1.301-5.54-1.172-10.325-2.184-14.484-3.323l-.278-.075c-.385-.104-.88-.305-1.388-.559-1.058-.528-.943-2.079.178-2.456.006-.002.012-.004.018-.007,5.013-1.932,11.459-3.602,21.103-5.11,7.127-1.115,14.659-1.394,21.738-1.53,36.181-.693,60.94.901,69.077,1.425,6.705.432,15.537,1.185,24.398,3.195,6.414,1.455,13.202,3.668,18.656,5.448,1.501.489,2.917.951,4.223,1.365.193.061.395-.048.455-.242l3.308-10.504c.061-.193-.041-.396-.234-.457Z"/>
    </g>
    <g>
      <path class="cls-1" d="m677.973,398.708c-1.271-.403-2.649-.853-4.11-1.329-5.684-1.854-12.757-4.162-19.7-5.736-9.669-2.194-19.103-3.002-26.242-3.462-8.256-.532-33.382-2.151-70.056-1.447-7.494.144-15.507.446-23.329,1.669-10.59,1.657-17.914,3.46-23.749,5.849-.661.271-2.258,1.058-3.954,2.119-2.274,1.422-3.903,3.344-4.842,5.71-1.918,4.836.382,9.684,2.04,11.783,3.103,3.933,7.322,5.07,9.35,5.617l.235.063c4.492,1.23,9.433,2.275,15.154,3.485,1.936.409,3.948.835,6.034,1.288l9.335,2.093h42.944v-11.747h-41.594l-8.192-1.825c-2.108-.458-4.139-.888-6.095-1.301-5.54-1.172-10.325-2.184-14.483-3.323l-.278-.075c-.385-.104-.88-.305-1.388-.559-1.058-.528-.943-2.079.178-2.456.006-.002.012-.004.018-.007,5.013-1.932,11.459-3.601,21.103-5.11,7.127-1.115,14.659-1.394,21.738-1.53,36.181-.693,60.94.901,69.077,1.425,6.704.432,15.537,1.185,24.398,3.195,6.414,1.455,13.202,3.669,18.656,5.448,1.501.489,2.917.951,4.223,1.365.193.061.394-.048.455-.242l3.308-10.504c.061-.193-.041-.396-.234-.457Z"/>
      <path class="cls-1" d="m677.955,425.494c-1.271-.403-2.649-.853-4.11-1.329-5.684-1.854-12.758-4.162-19.7-5.736-9.669-2.194-19.103-3.002-26.242-3.462-8.256-.532-33.382-2.151-70.055-1.447-7.494.144-15.508.445-23.329,1.669-10.59,1.657-17.914,3.461-23.749,5.849-.661.271-2.258,1.058-3.954,2.119-2.274,1.423-3.903,3.344-4.842,5.71-1.918,4.836.382,9.684,2.04,11.783,3.103,3.933,7.322,5.07,9.35,5.617l.235.064c4.492,1.23,9.433,2.275,15.154,3.485,1.936.41,3.948.835,6.034,1.288l9.334,2.093h42.944v-11.747h-41.594l-8.192-1.825c-2.108-.458-4.14-.887-6.095-1.301-5.54-1.172-10.325-2.184-14.484-3.323l-.278-.075c-.385-.104-.88-.305-1.388-.559-1.058-.528-.943-2.079.178-2.456.006-.002.012-.004.018-.007,5.013-1.932,11.459-3.601,21.103-5.11,7.127-1.115,14.659-1.394,21.738-1.53,36.181-.693,60.94.901,69.077,1.425,6.705.432,15.537,1.185,24.398,3.195,6.414,1.455,13.202,3.669,18.656,5.448,1.501.49,2.917.951,4.223,1.365.194.061.395-.048.455-.242l3.308-10.504c.061-.193-.041-.396-.234-.457Z"/>
    </g>
    <g>
      <path class="cls-1" d="m677.964,502.128c-1.271-.403-2.649-.853-4.11-1.329-5.684-1.854-12.757-4.162-19.7-5.736-9.669-2.194-19.103-3.002-26.242-3.462-8.256-.532-33.382-2.151-70.055-1.447-7.495.144-15.508.445-23.329,1.669-10.59,1.657-17.914,3.461-23.749,5.849-.661.271-2.258,1.058-3.954,2.119-2.274,1.422-3.903,3.344-4.842,5.71-1.918,4.836.382,9.684,2.04,11.783,3.103,3.933,7.322,5.07,9.35,5.618l.235.063c4.492,1.23,9.433,2.275,15.154,3.485,1.936.41,3.948.835,6.034,1.288l9.334,2.093h42.944v-11.747h-41.594l-8.192-1.825c-2.108-.458-4.14-.887-6.095-1.301-5.54-1.172-10.325-2.184-14.484-3.323l-.278-.075c-.385-.104-.88-.305-1.388-.559-1.058-.528-.943-2.079.179-2.456.006-.002.012-.004.018-.007,5.013-1.931,11.459-3.601,21.103-5.11,7.127-1.115,14.659-1.394,21.738-1.53,36.181-.693,60.94.901,69.077,1.425,6.705.432,15.537,1.185,24.398,3.195,6.414,1.454,13.202,3.668,18.656,5.448,1.501.49,2.917.951,4.223,1.365.193.061.395-.048.455-.242l3.308-10.504c.061-.193-.041-.396-.234-.457Z"/>
      <path class="cls-1" d="m677.947,529.845c-1.271-.403-2.649-.853-4.11-1.329-5.684-1.854-12.758-4.162-19.7-5.736-9.669-2.194-19.103-3.002-26.242-3.462-8.256-.532-33.382-2.151-70.056-1.447-7.494.144-15.508.445-23.329,1.669-10.59,1.657-17.914,3.461-23.749,5.849-.661.271-2.258,1.058-3.954,2.119-2.274,1.422-3.903,3.344-4.842,5.71-1.918,4.836.382,9.684,2.04,11.783,3.103,3.933,7.322,5.07,9.35,5.617l.235.063c4.492,1.23,9.433,2.275,15.154,3.485,1.936.41,3.948.835,6.034,1.288l9.334,2.093h42.944v-11.746h-41.594l-8.192-1.825c-2.108-.458-4.14-.887-6.095-1.301-5.54-1.172-10.325-2.184-14.484-3.323l-.278-.075c-.385-.104-.88-.305-1.388-.559-1.058-.528-.943-2.079.178-2.456.006-.002.012-.004.018-.007,5.013-1.931,11.459-3.601,21.103-5.11,7.127-1.115,14.659-1.394,21.738-1.53,36.181-.693,60.94.901,69.077,1.425,6.705.432,15.537,1.185,24.398,3.195,6.414,1.455,13.202,3.668,18.656,5.448,1.501.49,2.917.952,4.223,1.365.193.061.395-.048.455-.242l3.308-10.504c.061-.193-.041-.396-.234-.457Z"/>
    </g>
    <g>
      <path class="cls-1" d="m677.938,605.839c-1.271-.403-2.65-.853-4.111-1.329-5.684-1.854-12.758-4.162-19.7-5.736-9.669-2.194-19.103-3.002-26.242-3.462-8.256-.532-33.382-2.151-70.056-1.447-7.494.144-15.507.445-23.329,1.669-10.59,1.657-17.914,3.461-23.749,5.849-.661.271-2.258,1.058-3.954,2.119-2.274,1.422-3.903,3.344-4.842,5.71-1.918,4.836.382,9.684,2.04,11.783,3.103,3.933,7.322,5.07,9.35,5.617l.235.064c4.492,1.23,9.433,2.275,15.154,3.485,1.936.409,3.948.835,6.034,1.288l9.334,2.093h42.944v-11.747h-41.594l-8.192-1.825c-2.108-.458-4.139-.887-6.095-1.301-5.54-1.172-10.325-2.184-14.484-3.323l-.278-.075c-.385-.104-.88-.305-1.388-.559-1.058-.528-.942-2.079.179-2.456.006-.002.012-.004.018-.007,5.013-1.932,11.459-3.602,21.103-5.11,7.127-1.115,14.659-1.394,21.738-1.53,36.181-.693,60.94.901,69.077,1.425,6.705.432,15.537,1.185,24.398,3.195,6.414,1.455,13.202,3.669,18.656,5.448,1.501.49,2.917.951,4.223,1.365.193.061.395-.048.455-.242l3.308-10.504c.061-.193-.041-.396-.234-.457Z"/>
      <path class="cls-1" d="m677.938,633.885c-1.271-.403-2.65-.853-4.111-1.329-5.684-1.854-12.758-4.162-19.7-5.736-9.669-2.194-19.103-3.002-26.242-3.462-8.256-.532-33.382-2.151-70.056-1.447-7.494.144-15.507.445-23.329,1.669-10.59,1.657-17.914,3.461-23.749,5.849-.661.271-2.258,1.058-3.954,2.119-2.274,1.422-3.903,3.344-4.842,5.71-1.918,4.836.382,9.684,2.04,11.783,3.103,3.933,7.322,5.07,9.35,5.618l.235.063c4.492,1.23,9.433,2.275,15.154,3.485,1.936.41,3.948.835,6.034,1.288l9.334,2.093h42.944v-11.747h-41.594l-8.192-1.825c-2.108-.458-4.139-.887-6.095-1.301-5.54-1.172-10.325-2.184-14.484-3.323l-.278-.075c-.385-.104-.88-.305-1.388-.559-1.058-.528-.942-2.079.179-2.456.006-.002.012-.004.018-.007,5.013-1.931,11.459-3.601,21.103-5.11,7.127-1.115,14.659-1.394,21.738-1.53,36.181-.693,60.94.901,69.077,1.425,6.705.432,15.537,1.184,24.398,3.195,6.414,1.454,13.202,3.668,18.656,5.448,1.501.49,2.917.951,4.223,1.365.193.061.395-.048.455-.242l3.308-10.504c.061-.193-.041-.396-.234-.457Z"/>
    </g>
    <g>
      <path class="cls-1" d="m677.938,711.874c-1.271-.403-2.65-.853-4.111-1.329-5.684-1.854-12.758-4.162-19.7-5.736-9.669-2.194-19.103-3.002-26.242-3.462-8.256-.532-33.382-2.151-70.056-1.447-7.494.144-15.507.445-23.329,1.669-10.59,1.657-17.914,3.461-23.749,5.849-.661.271-2.258,1.058-3.954,2.119-2.274,1.422-3.903,3.344-4.842,5.71-1.918,4.836.382,9.684,2.04,11.783,3.103,3.933,7.322,5.07,9.35,5.617l.235.063c4.492,1.23,9.433,2.275,15.154,3.485,1.936.41,3.948.835,6.034,1.288l9.334,2.093h42.944v-11.746h-41.594l-8.192-1.825c-2.108-.458-4.139-.887-6.095-1.301-5.54-1.172-10.325-2.184-14.484-3.323l-.278-.075c-.385-.104-.88-.305-1.388-.559-1.058-.528-.942-2.079.179-2.456.006-.002.012-.004.018-.007,5.013-1.931,11.459-3.601,21.103-5.11,7.127-1.115,14.659-1.394,21.738-1.53,36.181-.693,60.94.901,69.077,1.425,6.705.432,15.537,1.185,24.398,3.195,6.414,1.455,13.202,3.669,18.656,5.448,1.501.49,2.917.952,4.223,1.365.193.061.395-.048.455-.242l3.308-10.504c.061-.193-.041-.396-.234-.457Z"/>
      <path class="cls-1" d="m677.938,739.92c-1.271-.403-2.65-.853-4.111-1.329-5.684-1.854-12.758-4.162-19.7-5.736-9.669-2.194-19.103-3.002-26.242-3.462-8.256-.532-33.382-2.151-70.056-1.447-7.494.144-15.507.445-23.329,1.669-10.59,1.657-17.914,3.46-23.749,5.849-.661.271-2.258,1.058-3.954,2.119-2.274,1.422-3.903,3.344-4.842,5.71-1.918,4.836.382,9.684,2.04,11.783,3.103,3.933,7.322,5.07,9.35,5.618l.235.064c4.492,1.23,9.433,2.275,15.154,3.485,1.936.409,3.948.835,6.034,1.288l9.334,2.093h42.944v-11.747h-41.594l-8.192-1.825c-2.108-.458-4.139-.887-6.095-1.301-5.54-1.172-10.325-2.184-14.484-3.323l-.278-.075c-.385-.104-.88-.305-1.388-.559-1.058-.528-.942-2.079.179-2.456.006-.002.012-.004.018-.007,5.013-1.932,11.459-3.602,21.103-5.11,7.127-1.115,14.659-1.394,21.738-1.53,36.181-.693,60.94.901,69.077,1.425,6.705.432,15.537,1.185,24.398,3.195,6.414,1.455,13.202,3.668,18.656,5.448,1.501.49,2.917.951,4.223,1.365.193.061.395-.048.455-.242l3.308-10.504c.061-.193-.041-.396-.234-.457Z"/>
    </g>
    <g>
      <path class="cls-1" d="m677.938,816.045c-1.271-.403-2.65-.853-4.111-1.329-5.684-1.854-12.758-4.162-19.7-5.736-9.669-2.194-19.103-3.002-26.242-3.462-8.256-.532-33.382-2.151-70.056-1.447-7.494.144-15.507.445-23.329,1.669-10.59,1.657-17.914,3.46-23.749,5.849-.661.271-2.258,1.058-3.954,2.119-2.274,1.422-3.903,3.344-4.842,5.71-1.918,4.836.382,9.684,2.04,11.783,3.103,3.933,7.322,5.07,9.35,5.617l.235.063c4.492,1.23,9.433,2.275,15.154,3.485,1.936.41,3.948.835,6.034,1.288l9.334,2.093h42.944v-11.747h-41.594l-8.192-1.825c-2.108-.458-4.139-.887-6.095-1.301-5.54-1.172-10.325-2.184-14.484-3.323l-.278-.075c-.385-.104-.88-.305-1.388-.559-1.058-.528-.942-2.079.179-2.456.006-.002.012-.004.018-.007,5.013-1.932,11.459-3.602,21.103-5.11,7.127-1.114,14.659-1.394,21.738-1.53,36.181-.693,60.94.901,69.077,1.425,6.705.432,15.537,1.185,24.398,3.195,6.414,1.455,13.202,3.668,18.656,5.448,1.501.49,2.917.952,4.223,1.365.193.061.395-.048.455-.242l3.308-10.504c.061-.193-.041-.396-.234-.457Z"/>
      <path class="cls-1" d="m677.938,844.091c-1.271-.403-2.65-.853-4.111-1.329-5.684-1.854-12.758-4.162-19.7-5.736-9.669-2.194-19.103-3.002-26.242-3.462-8.256-.532-33.382-2.151-70.056-1.447-7.494.144-15.507.445-23.329,1.669-10.59,1.657-17.914,3.461-23.749,5.849-.661.271-2.258,1.058-3.954,2.119-2.274,1.422-3.903,3.344-4.842,5.71-1.918,4.836.382,9.684,2.04,11.783,3.103,3.933,7.322,5.07,9.35,5.618l.235.064c4.492,1.23,9.433,2.275,15.154,3.485,1.936.409,3.948.835,6.034,1.288l9.334,2.093h42.944v-11.747h-41.594l-8.192-1.825c-2.108-.458-4.139-.887-6.095-1.301-5.54-1.172-10.325-2.184-14.484-3.323l-.278-.075c-.385-.104-.88-.305-1.388-.559-1.058-.528-.942-2.079.179-2.456.006-.002.012-.004.018-.007,5.013-1.932,11.459-3.602,21.103-5.11,7.127-1.115,14.659-1.394,21.738-1.53,36.181-.693,60.94.901,69.077,1.425,6.705.432,15.537,1.185,24.398,3.195,6.414,1.455,13.202,3.669,18.656,5.448,1.501.49,2.917.951,4.223,1.365.193.061.395-.048.455-.242l3.308-10.504c.061-.193-.041-.396-.234-.457Z"/>
    </g>
    <g>
      <path class="cls-1" d="m677.938,920.216c-1.271-.403-2.65-.853-4.111-1.329-5.684-1.854-12.758-4.162-19.7-5.736-9.669-2.194-19.103-3.002-26.242-3.462-8.256-.532-33.382-2.151-70.056-1.447-7.494.144-15.507.445-23.329,1.669-10.59,1.657-17.914,3.461-23.749,5.849-.661.271-2.258,1.058-3.954,2.119-2.274,1.422-3.903,3.344-4.842,5.71-1.918,4.836.382,9.684,2.04,11.783,3.103,3.933,7.322,5.07,9.35,5.617l.235.064c4.492,1.23,9.433,2.275,15.154,3.485,1.936.41,3.948.835,6.034,1.288l9.334,2.093h42.944v-11.747h-41.594l-8.192-1.825c-2.108-.458-4.139-.887-6.095-1.301-5.54-1.172-10.325-2.184-14.484-3.323l-.278-.075c-.385-.104-.88-.305-1.388-.559-1.058-.528-.942-2.079.179-2.456.006-.002.012-.004.018-.007,5.013-1.931,11.459-3.601,21.103-5.11,7.127-1.114,14.659-1.394,21.738-1.53,36.181-.693,60.94.901,69.077,1.425,6.705.432,15.537,1.185,24.398,3.195,6.414,1.455,13.202,3.669,18.656,5.448,1.501.49,2.917.952,4.223,1.365.193.061.395-.048.455-.242l3.308-10.504c.061-.193-.041-.396-.234-.457Z"/>
      <path class="cls-1" d="m677.938,948.262c-1.271-.403-2.65-.853-4.111-1.329-5.684-1.854-12.758-4.162-19.7-5.736-9.669-2.194-19.103-3.002-26.242-3.462-8.256-.532-33.382-2.151-70.056-1.447-7.494.144-15.507.446-23.329,1.669-10.59,1.657-17.914,3.461-23.749,5.849-.661.271-2.258,1.059-3.954,2.119-2.274,1.422-3.903,3.344-4.842,5.71-1.918,4.836.382,9.684,2.04,11.783,3.103,3.933,7.322,5.07,9.35,5.617l.235.064c4.492,1.23,9.433,2.275,15.154,3.485,1.936.409,3.948.835,6.034,1.288l9.334,2.093h42.944v-11.747h-41.594l-8.192-1.825c-2.108-.458-4.139-.888-6.095-1.301-5.54-1.172-10.325-2.184-14.484-3.323l-.278-.075c-.385-.104-.88-.305-1.388-.559-1.058-.528-.942-2.079.179-2.456.006-.002.012-.004.018-.007,5.013-1.932,11.459-3.602,21.103-5.11,7.127-1.115,14.659-1.394,21.738-1.53,36.181-.693,60.94.901,69.077,1.425,6.705.432,15.537,1.185,24.398,3.195,6.414,1.455,13.202,3.669,18.656,5.448,1.501.489,2.917.951,4.223,1.365.193.061.395-.048.455-.242l3.308-10.504c.061-.193-.041-.396-.234-.457Z"/>
    </g>
    <g>
      <path class="cls-1" d="m677.938,1024.387c-1.271-.403-2.65-.853-4.111-1.329-5.684-1.854-12.758-4.162-19.7-5.736-9.669-2.194-19.103-3.002-26.242-3.462-8.256-.532-33.382-2.151-70.056-1.447-7.494.144-15.507.445-23.329,1.669-10.59,1.657-17.914,3.461-23.749,5.849-.661.271-2.258,1.058-3.954,2.119-2.274,1.422-3.903,3.344-4.842,5.71-1.918,4.836.382,9.684,2.04,11.783,3.103,3.933,7.322,5.07,9.35,5.617l.235.064c4.492,1.23,9.433,2.275,15.154,3.485,1.936.41,3.948.835,6.034,1.288l9.334,2.093h42.944v-11.747h-41.594l-8.192-1.825c-2.108-.458-4.139-.888-6.095-1.301-5.54-1.172-10.325-2.184-14.484-3.323l-.278-.075c-.385-.104-.88-.305-1.388-.559-1.058-.528-.942-2.079.179-2.456.006-.002.012-.004.018-.007,5.013-1.931,11.459-3.601,21.103-5.11,7.127-1.114,14.659-1.394,21.738-1.53,36.181-.693,60.94.901,69.077,1.425,6.705.432,15.537,1.185,24.398,3.195,6.414,1.455,13.202,3.669,18.656,5.448,1.501.49,2.917.951,4.223,1.365.193.061.395-.048.455-.242l3.308-10.504c.061-.193-.041-.396-.234-.457Z"/>
      <path class="cls-1" d="m677.938,1052.433c-1.271-.403-2.65-.853-4.111-1.329-5.684-1.854-12.758-4.162-19.7-5.736-9.669-2.194-19.103-3.002-26.242-3.462-8.256-.532-33.382-2.151-70.056-1.447-7.494.144-15.507.446-23.329,1.669-10.59,1.657-17.914,3.46-23.749,5.849-.661.271-2.258,1.059-3.954,2.119-2.274,1.422-3.903,3.344-4.842,5.71-1.918,4.836.382,9.684,2.04,11.783,3.103,3.933,7.322,5.07,9.35,5.617l.235.064c4.492,1.23,9.433,2.275,15.154,3.485,1.936.409,3.948.835,6.034,1.288l9.334,2.093h42.944v-11.747h-41.594l-8.192-1.825c-2.108-.458-4.139-.887-6.095-1.301-5.54-1.172-10.325-2.184-14.484-3.323l-.278-.075c-.385-.104-.88-.305-1.388-.559-1.058-.528-.942-2.079.179-2.456.006-.002.012-.004.018-.007,5.013-1.932,11.459-3.602,21.103-5.11,7.127-1.115,14.659-1.394,21.738-1.53,36.181-.693,60.94.901,69.077,1.425,6.705.432,15.537,1.185,24.398,3.195,6.414,1.454,13.202,3.668,18.656,5.448,1.501.49,2.917.951,4.223,1.365.193.061.395-.048.455-.242l3.308-10.504c.061-.193-.041-.396-.234-.457Z"/>
    </g>
    <g>
      <path class="cls-1" d="m677.938,1128.559c-1.271-.403-2.65-.853-4.111-1.329-5.684-1.854-12.758-4.162-19.7-5.736-9.669-2.194-19.103-3.002-26.242-3.462-8.256-.532-33.382-2.151-70.056-1.447-7.494.144-15.507.445-23.329,1.669-10.59,1.657-17.914,3.461-23.749,5.849-.661.271-2.258,1.058-3.954,2.119-2.274,1.422-3.903,3.344-4.842,5.71-1.918,4.836.382,9.684,2.04,11.783,3.103,3.933,7.322,5.07,9.35,5.617l.235.064c4.492,1.23,9.433,2.275,15.154,3.485,1.936.41,3.948.835,6.034,1.288l9.334,2.093h42.944v-11.747h-41.594l-8.192-1.825c-2.108-.458-4.139-.887-6.095-1.301-5.54-1.172-10.325-2.184-14.484-3.323l-.278-.075c-.385-.104-.88-.305-1.388-.559-1.058-.528-.942-2.079.179-2.456.006-.002.012-.004.018-.007,5.013-1.932,11.459-3.602,21.103-5.11,7.127-1.114,14.659-1.394,21.738-1.53,36.181-.693,60.94.901,69.077,1.425,6.705.432,15.537,1.185,24.398,3.195,6.414,1.455,13.202,3.668,18.656,5.448,1.501.49,2.917.951,4.223,1.365.193.061.395-.048.455-.242l3.308-10.504c.061-.193-.041-.396-.234-.457Z"/>
      <path class="cls-1" d="m677.938,1156.604c-1.271-.403-2.65-.853-4.111-1.329-5.684-1.854-12.758-4.162-19.7-5.736-9.669-2.194-19.103-3.002-26.242-3.462-8.256-.532-33.382-2.151-70.056-1.447-7.494.144-15.507.445-23.329,1.669-10.59,1.657-17.914,3.461-23.749,5.849-.661.271-2.258,1.058-3.954,2.119-2.274,1.422-3.903,3.344-4.842,5.71-1.918,4.836.382,9.684,2.04,11.783,3.103,3.933,7.322,5.07,9.35,5.617l.235.064c4.492,1.23,9.433,2.275,15.154,3.485,1.936.409,3.948.835,6.034,1.288l9.334,2.093h42.944v-11.747h-41.594l-8.192-1.825c-2.108-.458-4.139-.888-6.095-1.301-5.54-1.172-10.325-2.184-14.484-3.323l-.278-.075c-.385-.104-.88-.305-1.388-.559-1.058-.528-.942-2.079.179-2.456.006-.002.012-.004.018-.007,5.013-1.932,11.459-3.602,21.103-5.11,7.127-1.115,14.659-1.394,21.738-1.53,36.181-.693,60.94.901,69.077,1.425,6.705.432,15.537,1.185,24.398,3.195,6.414,1.454,13.202,3.668,18.656,5.448,1.501.489,2.917.951,4.223,1.365.193.061.395-.048.455-.242l3.308-10.504c.061-.193-.041-.396-.234-.457Z"/>
    </g>
    <g>
      <path class="cls-1" d="m677.938,1233.646c-1.271-.403-2.65-.853-4.111-1.329-5.684-1.854-12.758-4.162-19.7-5.736-9.669-2.194-19.103-3.002-26.242-3.462-8.256-.532-33.382-2.151-70.056-1.447-7.494.144-15.507.445-23.329,1.669-10.59,1.657-17.914,3.461-23.749,5.849-.661.271-2.258,1.058-3.954,2.119-2.274,1.422-3.903,3.344-4.842,5.71-1.918,4.836.382,9.684,2.04,11.783,3.103,3.933,7.322,5.07,9.35,5.617l.235.064c4.492,1.23,9.433,2.275,15.154,3.485,1.936.41,3.948.835,6.034,1.288l9.334,2.093h42.944v-11.747h-41.594l-8.192-1.825c-2.108-.458-4.139-.888-6.095-1.301-5.54-1.172-10.325-2.184-14.484-3.323l-.278-.075c-.385-.104-.88-.305-1.388-.559-1.058-.528-.942-2.079.179-2.456.006-.002.012-.004.018-.007,5.013-1.931,11.459-3.601,21.103-5.11,7.127-1.115,14.659-1.394,21.738-1.53,36.181-.693,60.94.901,69.077,1.425,6.705.432,15.537,1.185,24.398,3.195,6.414,1.455,13.202,3.669,18.656,5.448,1.501.49,2.917.951,4.223,1.365.193.061.395-.048.455-.242l3.308-10.504c.061-.193-.041-.396-.234-.457Z"/>
      <path class="cls-1" d="m677.938,1261.692c-1.271-.403-2.65-.853-4.111-1.329-5.684-1.854-12.758-4.162-19.7-5.736-9.669-2.194-19.103-3.002-26.242-3.462-8.256-.532-33.382-2.151-70.056-1.447-7.494.144-15.507.445-23.329,1.669-10.59,1.657-17.914,3.46-23.749,5.849-.661.271-2.258,1.059-3.954,2.119-2.274,1.422-3.903,3.344-4.842,5.71-1.918,4.836.382,9.684,2.04,11.783,3.103,3.933,7.322,5.07,9.35,5.617l.235.064c4.492,1.23,9.433,2.275,15.154,3.485,1.936.409,3.948.835,6.034,1.288l9.334,2.093h42.944v-11.747h-41.594l-8.192-1.825c-2.108-.458-4.139-.888-6.095-1.301-5.54-1.172-10.325-2.184-14.484-3.323l-.278-.075c-.385-.104-.88-.305-1.388-.559-1.058-.528-.942-2.079.179-2.456.006-.002.012-.004.018-.007,5.013-1.932,11.459-3.602,21.103-5.11,7.127-1.115,14.659-1.394,21.738-1.53,36.181-.693,60.94.901,69.077,1.425,6.705.432,15.537,1.185,24.398,3.195,6.414,1.455,13.202,3.669,18.656,5.448,1.501.489,2.917.951,4.223,1.365.193.061.395-.048.455-.242l3.308-10.504c.061-.193-.041-.396-.234-.457Z"/>
    </g>
    <g>
      <path class="cls-1" d="m677.938,1336.755c-1.271-.403-2.65-.853-4.111-1.329-5.684-1.854-12.758-4.162-19.7-5.736-9.669-2.194-19.103-3.002-26.242-3.462-8.256-.532-33.382-2.151-70.056-1.447-7.494.144-15.507.445-23.329,1.669-10.59,1.657-17.914,3.461-23.749,5.849-.661.271-2.258,1.058-3.954,2.119-2.274,1.422-3.903,3.344-4.842,5.71-1.918,4.836.382,9.684,2.04,11.783,3.103,3.933,7.322,5.07,9.35,5.617l.235.063c4.492,1.23,9.433,2.275,15.154,3.485,1.936.409,3.948.835,6.034,1.288l9.334,2.093h42.944v-11.747h-41.594l-8.192-1.825c-2.108-.458-4.139-.887-6.095-1.301-5.54-1.172-10.325-2.184-14.484-3.323l-.278-.075c-.385-.104-.88-.305-1.388-.559-1.058-.528-.942-2.079.179-2.456.006-.002.012-.004.018-.007,5.013-1.932,11.459-3.602,21.103-5.11,7.127-1.115,14.659-1.394,21.738-1.53,36.181-.693,60.94.901,69.077,1.425,6.705.432,15.537,1.185,24.398,3.195,6.414,1.454,13.202,3.668,18.656,5.448,1.501.49,2.917.952,4.223,1.365.193.061.395-.048.455-.242l3.308-10.504c.061-.193-.041-.396-.234-.457Z"/>
      <path class="cls-1" d="m677.938,1364.801c-1.271-.403-2.65-.853-4.111-1.329-5.684-1.854-12.758-4.162-19.7-5.736-9.669-2.194-19.103-3.002-26.242-3.462-8.256-.532-33.382-2.151-70.056-1.447-7.494.144-15.507.445-23.329,1.669-10.59,1.657-17.914,3.46-23.749,5.849-.661.271-2.258,1.058-3.954,2.119-2.274,1.422-3.903,3.344-4.842,5.71-1.918,4.836.382,9.684,2.04,11.783,3.103,3.933,7.322,5.07,9.35,5.618l.235.064c4.492,1.23,9.433,2.275,15.154,3.485,1.936.41,3.948.835,6.034,1.288l9.334,2.093h42.944v-11.747h-41.594l-8.192-1.825c-2.108-.458-4.139-.888-6.095-1.301-5.54-1.172-10.325-2.184-14.484-3.323l-.278-.075c-.385-.104-.88-.305-1.388-.559-1.058-.528-.942-2.079.179-2.456.006-.002.012-.004.018-.007,5.013-1.932,11.459-3.601,21.103-5.11,7.127-1.115,14.659-1.394,21.738-1.53,36.181-.693,60.94.901,69.077,1.425,6.705.432,15.537,1.185,24.398,3.195,6.414,1.455,13.202,3.668,18.656,5.448,1.501.49,2.917.951,4.223,1.365.193.061.395-.048.455-.242l3.308-10.504c.061-.193-.041-.396-.234-.457Z"/>
    </g>
    <g>
      <path class="cls-1" d="m677.938,1441.728c-1.271-.403-2.65-.853-4.111-1.329-5.684-1.854-12.758-4.162-19.7-5.736-9.669-2.194-19.103-3.002-26.242-3.462-8.256-.532-33.382-2.151-70.056-1.447-7.494.144-15.507.445-23.329,1.669-10.59,1.657-17.914,3.46-23.749,5.849-.661.271-2.258,1.058-3.954,2.119-2.274,1.423-3.903,3.344-4.842,5.71-1.918,4.836.382,9.684,2.04,11.783,3.103,3.933,7.322,5.07,9.35,5.617l.235.063c4.492,1.23,9.433,2.275,15.154,3.485,1.936.409,3.948.835,6.034,1.288l9.334,2.093h42.944v-11.746h-41.594l-8.192-1.825c-2.108-.458-4.139-.888-6.095-1.301-5.54-1.172-10.325-2.184-14.484-3.323l-.278-.075c-.385-.104-.88-.305-1.388-.559-1.058-.528-.942-2.079.179-2.456.006-.002.012-.004.018-.007,5.013-1.932,11.459-3.602,21.103-5.11,7.127-1.114,14.659-1.394,21.738-1.53,36.181-.693,60.94.901,69.077,1.425,6.705.432,15.537,1.185,24.398,3.195,6.414,1.455,13.202,3.668,18.656,5.448,1.501.49,2.917.951,4.223,1.365.193.061.395-.048.455-.242l3.308-10.504c.061-.193-.041-.396-.234-.457Z"/>
      <path class="cls-1" d="m677.938,1469.774c-1.271-.403-2.65-.853-4.111-1.329-5.684-1.854-12.758-4.162-19.7-5.736-9.669-2.194-19.103-3.002-26.242-3.462-8.256-.532-33.382-2.151-70.056-1.447-7.494.144-15.507.445-23.329,1.669-10.59,1.657-17.914,3.46-23.749,5.849-.661.271-2.258,1.058-3.954,2.119-2.274,1.422-3.903,3.344-4.842,5.71-1.918,4.836.382,9.684,2.04,11.783,3.103,3.933,7.322,5.07,9.35,5.618l.235.063c4.492,1.23,9.433,2.275,15.154,3.485,1.936.409,3.948.835,6.034,1.288l9.334,2.093h42.944v-11.747h-41.594l-8.192-1.825c-2.108-.458-4.139-.888-6.095-1.301-5.54-1.172-10.325-2.184-14.484-3.323l-.278-.075c-.385-.104-.88-.305-1.388-.559-1.058-.528-.942-2.079.179-2.456.006-.002.012-.004.018-.007,5.013-1.931,11.459-3.601,21.103-5.11,7.127-1.115,14.659-1.394,21.738-1.53,36.181-.693,60.94.901,69.077,1.425,6.705.432,15.537,1.185,24.398,3.195,6.414,1.455,13.202,3.668,18.656,5.448,1.501.49,2.917.951,4.223,1.365.193.061.395-.048.455-.242l3.308-10.504c.061-.193-.041-.396-.234-.457Z"/>
    </g>
    <g>
      <path class="cls-1" d="m677.938,1546.701c-1.271-.403-2.65-.853-4.111-1.329-5.684-1.854-12.758-4.162-19.7-5.736-9.669-2.194-19.103-3.002-26.242-3.462-8.256-.532-33.382-2.151-70.056-1.447-7.494.144-15.507.445-23.329,1.669-10.59,1.657-17.914,3.46-23.749,5.849-.661.271-2.258,1.058-3.954,2.119-2.274,1.422-3.903,3.344-4.842,5.71-1.918,4.836.382,9.684,2.04,11.783,3.103,3.933,7.322,5.07,9.35,5.618l.235.063c4.492,1.23,9.433,2.275,15.154,3.485,1.936.409,3.948.835,6.034,1.288l9.334,2.093h42.944v-11.746h-41.594l-8.192-1.825c-2.108-.458-4.139-.888-6.095-1.301-5.54-1.172-10.325-2.184-14.484-3.323l-.278-.075c-.385-.104-.88-.305-1.388-.559-1.058-.528-.942-2.079.179-2.456.006-.002.012-.004.018-.007,5.013-1.932,11.459-3.602,21.103-5.11,7.127-1.115,14.659-1.394,21.738-1.53,36.181-.693,60.94.901,69.077,1.425,6.705.432,15.537,1.184,24.398,3.195,6.414,1.454,13.202,3.668,18.656,5.448,1.501.49,2.917.951,4.223,1.365.193.061.395-.048.455-.242l3.308-10.504c.061-.193-.041-.396-.234-.457Z"/>
      <path class="cls-1" d="m677.938,1574.746c-1.271-.403-2.65-.853-4.111-1.329-5.684-1.854-12.758-4.162-19.7-5.736-9.669-2.194-19.103-3.002-26.242-3.462-8.256-.532-33.382-2.151-70.056-1.447-7.494.144-15.507.445-23.329,1.669-10.59,1.657-17.914,3.46-23.749,5.849-.661.271-2.258,1.059-3.954,2.119-2.274,1.422-3.903,3.344-4.842,5.71-1.918,4.836.382,9.684,2.04,11.783,3.103,3.933,7.322,5.07,9.35,5.618l.235.064c4.492,1.23,9.433,2.275,15.154,3.485,1.936.409,3.948.835,6.034,1.288l9.334,2.093h42.944v-11.747h-41.594l-8.192-1.825c-2.108-.458-4.139-.888-6.095-1.301-5.54-1.172-10.325-2.184-14.484-3.323l-.278-.075c-.385-.104-.88-.305-1.388-.559-1.058-.528-.942-2.079.179-2.456.006-.002.012-.004.018-.007,5.013-1.932,11.459-3.602,21.103-5.11,7.127-1.115,14.659-1.394,21.738-1.53,36.181-.693,60.94.901,69.077,1.425,6.705.432,15.537,1.185,24.398,3.195,6.414,1.454,13.202,3.668,18.656,5.448,1.501.49,2.917.951,4.223,1.365.193.061.395-.048.455-.242l3.308-10.504c.061-.193-.041-.396-.234-.457Z"/>
    </g>
    <g>
      <path class="cls-1" d="m677.938,1650.741c-1.271-.403-2.65-.853-4.111-1.329-5.684-1.854-12.758-4.162-19.7-5.736-9.669-2.194-19.103-3.002-26.242-3.462-8.256-.532-33.382-2.151-70.056-1.447-7.494.144-15.507.445-23.329,1.669-10.59,1.657-17.914,3.461-23.749,5.849-.661.271-2.258,1.059-3.954,2.119-2.274,1.422-3.903,3.344-4.842,5.71-1.918,4.836.382,9.684,2.04,11.783,3.103,3.933,7.322,5.07,9.35,5.618l.235.064c4.492,1.23,9.433,2.275,15.154,3.485,1.936.409,3.948.835,6.034,1.288l9.334,2.093h42.944v-11.746h-41.594l-8.192-1.825c-2.108-.458-4.139-.888-6.095-1.301-5.54-1.172-10.325-2.184-14.484-3.323l-.278-.075c-.385-.104-.88-.305-1.388-.559-1.058-.528-.942-2.079.179-2.456.006-.002.012-.004.018-.007,5.013-1.932,11.459-3.602,21.103-5.11,7.127-1.115,14.659-1.394,21.738-1.53,36.181-.693,60.94.901,69.077,1.425,6.705.432,15.537,1.185,24.398,3.195,6.414,1.454,13.202,3.668,18.656,5.448,1.501.49,2.917.951,4.223,1.365.193.061.395-.048.455-.242l3.308-10.504c.061-.193-.041-.396-.234-.457Z"/>
      <path class="cls-1" d="m677.938,1678.787c-1.271-.403-2.65-.853-4.111-1.329-5.684-1.854-12.758-4.162-19.7-5.736-9.669-2.194-19.103-3.002-26.242-3.462-8.256-.532-33.382-2.151-70.056-1.447-7.494.144-15.507.445-23.329,1.669-10.59,1.657-17.914,3.461-23.749,5.849-.661.271-2.258,1.058-3.954,2.119-2.274,1.422-3.903,3.344-4.842,5.71-1.918,4.836.382,9.684,2.04,11.783,3.103,3.933,7.322,5.07,9.35,5.618l.235.063c4.492,1.23,9.433,2.275,15.154,3.485,1.936.409,3.948.835,6.034,1.288l9.334,2.093h42.944v-11.746h-41.594l-8.192-1.825c-2.108-.458-4.139-.887-6.095-1.301-5.54-1.172-10.325-2.184-14.484-3.323l-.278-.075c-.385-.104-.88-.305-1.388-.559-1.058-.528-.942-2.079.179-2.456.006-.002.012-.004.018-.007,5.013-1.932,11.459-3.602,21.103-5.11,7.127-1.115,14.659-1.394,21.738-1.53,36.181-.693,60.94.901,69.077,1.425,6.705.432,15.537,1.185,24.398,3.195,6.414,1.454,13.202,3.668,18.656,5.448,1.501.49,2.917.952,4.223,1.365.193.061.395-.048.455-.242l3.308-10.504c.061-.193-.041-.396-.234-.457Z"/>
    </g>
    <g>
      <path class="cls-1" d="m677.938,1754.782c-1.271-.403-2.65-.853-4.111-1.329-5.684-1.854-12.758-4.162-19.7-5.736-9.669-2.194-19.103-3.002-26.242-3.462-8.256-.532-33.382-2.151-70.056-1.447-7.494.144-15.507.445-23.329,1.669-10.59,1.657-17.914,3.461-23.749,5.849-.661.271-2.258,1.058-3.954,2.119-2.274,1.422-3.903,3.344-4.842,5.71-1.918,4.836.382,9.684,2.04,11.783,3.103,3.933,7.322,5.07,9.35,5.618l.235.063c4.492,1.23,9.433,2.275,15.154,3.485,1.936.409,3.948.835,6.034,1.288l9.334,2.093h42.944v-11.747h-41.594l-8.192-1.825c-2.108-.458-4.139-.887-6.095-1.301-5.54-1.172-10.325-2.184-14.484-3.323l-.278-.075c-.385-.104-.88-.305-1.388-.559-1.058-.528-.942-2.079.179-2.456.006-.002.012-.004.018-.007,5.013-1.932,11.459-3.602,21.103-5.11,7.127-1.115,14.659-1.394,21.738-1.53,36.181-.693,60.94.901,69.077,1.425,6.705.432,15.537,1.185,24.398,3.195,6.414,1.454,13.202,3.668,18.656,5.448,1.501.49,2.917.952,4.223,1.365.193.061.395-.048.455-.242l3.308-10.504c.061-.193-.041-.396-.234-.457Z"/>
      <path class="cls-1" d="m677.938,1782.828c-1.271-.403-2.65-.853-4.111-1.329-5.684-1.854-12.758-4.162-19.7-5.736-9.669-2.194-19.103-3.002-26.242-3.462-8.256-.532-33.382-2.151-70.056-1.447-7.494.144-15.507.445-23.329,1.669-10.59,1.657-17.914,3.461-23.749,5.849-.661.271-2.258,1.058-3.954,2.119-2.274,1.422-3.903,3.344-4.842,5.71-1.918,4.836.382,9.684,2.04,11.783,3.103,3.933,7.322,5.07,9.35,5.618l.235.064c4.492,1.23,9.433,2.275,15.154,3.485,1.936.41,3.948.835,6.034,1.288l9.334,2.093h42.944v-11.747h-41.594l-8.192-1.825c-2.108-.458-4.139-.888-6.095-1.301-5.54-1.172-10.325-2.184-14.484-3.323l-.278-.075c-.385-.104-.88-.305-1.388-.559-1.058-.528-.942-2.079.179-2.456.006-.002.012-.004.018-.007,5.013-1.932,11.459-3.602,21.103-5.11,7.127-1.115,14.659-1.394,21.738-1.53,36.181-.693,60.94.901,69.077,1.425,6.705.432,15.537,1.185,24.398,3.195,6.414,1.455,13.202,3.668,18.656,5.448,1.501.49,2.917.951,4.223,1.365.193.061.395-.048.455-.242l3.308-10.504c.061-.193-.041-.396-.234-.457Z"/>
    </g>
    <g>
      <path class="cls-1" d="m677.938,1858.823c-1.271-.403-2.65-.853-4.111-1.329-5.684-1.854-12.758-4.162-19.7-5.736-9.669-2.194-19.103-3.002-26.242-3.462-8.256-.532-33.382-2.151-70.056-1.447-7.494.144-15.507.445-23.329,1.669-10.59,1.657-17.914,3.46-23.749,5.849-.661.271-2.258,1.058-3.954,2.119-2.274,1.422-3.903,3.344-4.842,5.71-1.918,4.836.382,9.684,2.04,11.783,3.103,3.933,7.322,5.07,9.35,5.618l.235.064c4.492,1.23,9.433,2.275,15.154,3.485,1.936.41,3.948.835,6.034,1.288l9.334,2.093h42.944v-11.747h-41.594l-8.192-1.825c-2.108-.458-4.139-.887-6.095-1.301-5.54-1.172-10.325-2.184-14.484-3.323l-.278-.075c-.385-.104-.88-.305-1.388-.559-1.058-.528-.942-2.079.179-2.456.006-.002.012-.004.018-.007,5.013-1.932,11.459-3.602,21.103-5.11,7.127-1.115,14.659-1.394,21.738-1.53,36.181-.693,60.94.901,69.077,1.425,6.705.432,15.537,1.185,24.398,3.195,6.414,1.455,13.202,3.668,18.656,5.448,1.501.49,2.917.951,4.223,1.365.193.061.395-.048.455-.242l3.308-10.504c.061-.193-.041-.396-.234-.457Z"/>
      <path class="cls-1" d="m677.938,1886.869c-1.271-.403-2.65-.853-4.111-1.329-5.684-1.854-12.758-4.162-19.7-5.736-9.669-2.194-19.103-3.002-26.242-3.462-8.256-.532-33.382-2.151-70.056-1.447-7.494.144-15.507.445-23.329,1.669-10.59,1.657-17.914,3.461-23.749,5.849-.661.271-2.258,1.058-3.954,2.119-2.274,1.423-3.903,3.344-4.842,5.71-1.918,4.836.382,9.684,2.04,11.783,3.103,3.933,7.322,5.07,9.35,5.617l.235.064c4.492,1.23,9.433,2.275,15.154,3.485,1.936.41,3.948.835,6.034,1.288l9.334,2.093h42.944v-11.747h-41.594l-8.192-1.825c-2.108-.458-4.139-.887-6.095-1.301-5.54-1.172-10.325-2.184-14.484-3.323l-.278-.075c-.385-.104-.88-.305-1.388-.559-1.058-.528-.942-2.079.179-2.456.006-.002.012-.004.018-.007,5.013-1.932,11.459-3.602,21.103-5.11,7.127-1.115,14.659-1.394,21.738-1.53,36.181-.693,60.94.901,69.077,1.425,6.705.432,15.537,1.185,24.398,3.195,6.414,1.455,13.202,3.669,18.656,5.448,1.501.49,2.917.951,4.223,1.365.193.061.395-.048.455-.242l3.308-10.504c.061-.193-.041-.396-.234-.457Z"/>
    </g>
    <g>
      <path class="cls-1" d="m677.938,1962.864c-1.271-.403-2.65-.853-4.111-1.329-5.684-1.854-12.758-4.162-19.7-5.736-9.669-2.194-19.103-3.002-26.242-3.462-8.256-.532-33.382-2.151-70.056-1.447-7.494.144-15.507.445-23.329,1.669-10.59,1.657-17.914,3.461-23.749,5.849-.661.271-2.258,1.058-3.954,2.119-2.274,1.422-3.903,3.344-4.842,5.71-1.918,4.836.382,9.684,2.04,11.783,3.103,3.933,7.322,5.07,9.35,5.617l.235.064c4.492,1.23,9.433,2.275,15.154,3.485,1.936.41,3.948.835,6.034,1.288l9.334,2.093h42.944v-11.747h-41.594l-8.192-1.825c-2.108-.458-4.139-.887-6.095-1.301-5.54-1.172-10.325-2.184-14.484-3.323l-.278-.075c-.385-.104-.88-.305-1.388-.559-1.058-.528-.942-2.079.179-2.456.006-.002.012-.004.018-.007,5.013-1.932,11.459-3.602,21.103-5.11,7.127-1.115,14.659-1.394,21.738-1.53,36.181-.693,60.94.901,69.077,1.425,6.705.432,15.537,1.185,24.398,3.195,6.414,1.455,13.202,3.669,18.656,5.448,1.501.49,2.917.952,4.223,1.365.193.061.395-.048.455-.242l3.308-10.504c.061-.193-.041-.396-.234-.457Z"/>
      <path class="cls-1" d="m677.938,1990.91c-1.271-.403-2.65-.853-4.111-1.329-5.684-1.854-12.758-4.162-19.7-5.736-9.669-2.194-19.103-3.002-26.242-3.462-8.256-.532-33.382-2.151-70.056-1.447-7.494.144-15.507.445-23.329,1.669-10.59,1.657-17.914,3.461-23.749,5.849-.661.271-2.258,1.058-3.954,2.119-2.274,1.422-3.903,3.344-4.842,5.71-1.918,4.836.382,9.684,2.04,11.783,3.103,3.933,7.322,5.07,9.35,5.617l.235.064c4.492,1.23,9.433,2.275,15.154,3.485,1.936.409,3.948.835,6.034,1.288l9.334,2.093h42.944v-11.747h-41.594l-8.192-1.825c-2.108-.458-4.139-.888-6.095-1.301-5.54-1.172-10.325-2.184-14.484-3.323l-.278-.075c-.385-.104-.88-.305-1.388-.559-1.058-.528-.942-2.079.179-2.456.006-.002.012-.004.018-.007,5.013-1.932,11.459-3.602,21.103-5.11,7.127-1.114,14.659-1.394,21.738-1.53,36.181-.693,60.94.901,69.077,1.425,6.705.432,15.537,1.185,24.398,3.195,6.414,1.455,13.202,3.668,18.656,5.448,1.501.49,2.917.951,4.223,1.365.193.061.395-.048.455-.242l3.308-10.504c.061-.193-.041-.396-.234-.457Z"/>
    </g>
    <g>
      <path class="cls-1" d="m677.938,2067.837c-1.271-.403-2.65-.853-4.111-1.329-5.684-1.854-12.758-4.162-19.7-5.736-9.669-2.194-19.103-3.002-26.242-3.462-8.256-.532-33.382-2.151-70.056-1.447-7.494.144-15.507.446-23.329,1.669-10.59,1.657-17.914,3.46-23.749,5.849-.661.271-2.258,1.058-3.954,2.119-2.274,1.422-3.903,3.344-4.842,5.71-1.918,4.836.382,9.684,2.04,11.783,3.103,3.933,7.322,5.07,9.35,5.617l.235.064c4.492,1.23,9.433,2.275,15.154,3.485,1.936.409,3.948.835,6.034,1.288l9.334,2.093h42.944v-11.747h-41.594l-8.192-1.825c-2.108-.458-4.139-.888-6.095-1.301-5.54-1.172-10.325-2.184-14.484-3.323l-.278-.075c-.385-.104-.88-.305-1.388-.559-1.058-.528-.942-2.079.179-2.456.006-.002.012-.004.018-.007,5.013-1.932,11.459-3.602,21.103-5.11,7.127-1.115,14.659-1.394,21.738-1.53,36.181-.693,60.94.901,69.077,1.425,6.705.432,15.537,1.185,24.398,3.195,6.414,1.455,13.202,3.668,18.656,5.448,1.501.49,2.917.951,4.223,1.365.193.061.395-.048.455-.242l3.308-10.504c.061-.193-.041-.396-.234-.457Z"/>
      <path class="cls-1" d="m677.938,2095.882c-1.271-.403-2.65-.853-4.111-1.329-5.684-1.854-12.758-4.162-19.7-5.736-9.669-2.194-19.103-3.002-26.242-3.462-8.256-.532-33.382-2.151-70.056-1.447-7.494.144-15.507.445-23.329,1.669-10.59,1.657-17.914,3.461-23.749,5.849-.661.271-2.258,1.058-3.954,2.119-2.274,1.422-3.903,3.344-4.842,5.71-1.918,4.836.382,9.684,2.04,11.783,3.103,3.933,7.322,5.07,9.35,5.618l.235.063c4.492,1.23,9.433,2.275,15.154,3.485,1.936.409,3.948.835,6.034,1.288l9.334,2.093h42.944v-11.746h-41.594l-8.192-1.825c-2.108-.458-4.139-.888-6.095-1.301-5.54-1.172-10.325-2.184-14.484-3.323l-.278-.075c-.385-.104-.88-.305-1.388-.559-1.058-.528-.942-2.079.179-2.456.006-.002.012-.004.018-.007,5.013-1.931,11.459-3.602,21.103-5.11,7.127-1.115,14.659-1.394,21.738-1.53,36.181-.693,60.94.901,69.077,1.425,6.705.432,15.537,1.184,24.398,3.195,6.414,1.454,13.202,3.668,18.656,5.448,1.501.49,2.917.951,4.223,1.365.193.061.395-.048.455-.242l3.308-10.504c.061-.193-.041-.396-.234-.457Z"/>
    </g>
    <g>
      <path class="cls-1" d="m677.955,87.102c-1.271-.403-2.649-.853-4.11-1.329-5.684-1.854-12.758-4.162-19.7-5.736-9.669-2.194-19.103-3.002-26.242-3.462-8.256-.532-33.382-2.151-70.055-1.447-7.494.144-15.508.445-23.329,1.669-10.59,1.657-17.914,3.461-23.749,5.849-.661.271-2.258,1.058-3.954,2.119-2.274,1.422-3.903,3.344-4.842,5.71-1.918,4.836.382,9.684,2.04,11.783,3.103,3.933,7.322,5.07,9.35,5.617l.235.063c4.492,1.23,9.433,2.275,15.154,3.485,1.936.409,3.948.835,6.034,1.288l9.334,2.093h42.944v-11.747h-41.594l-8.192-1.825c-2.108-.458-4.14-.887-6.095-1.301-5.54-1.172-10.325-2.184-14.484-3.323l-.278-.075c-.385-.104-.88-.305-1.388-.559-1.058-.528-.943-2.079.178-2.456.006-.002.012-.004.018-.007,5.013-1.932,11.459-3.602,21.103-5.11,7.127-1.115,14.659-1.394,21.738-1.53,36.181-.693,60.94.901,69.077,1.425,6.705.432,15.537,1.185,24.398,3.195,6.414,1.454,13.202,3.668,18.656,5.448,1.501.49,2.917.952,4.223,1.365.194.061.395-.048.455-.242l3.308-10.504c.061-.193-.041-.396-.234-.457Z"/>
      <path class="cls-1" d="m677.938,108.297c-1.271-.403-2.65-.853-4.111-1.329-5.684-1.854-12.758-4.162-19.7-5.736-9.669-2.194-19.103-3.002-26.242-3.462-8.256-.532-33.382-2.151-70.056-1.447-7.494.144-15.507.446-23.329,1.669-10.59,1.657-17.914,3.46-23.749,5.849-.661.271-2.258,1.058-3.954,2.119-2.274,1.422-3.903,3.344-4.842,5.71-1.918,4.836.382,9.684,2.04,11.783,3.103,3.933,7.322,5.07,9.35,5.617l.235.064c4.492,1.23,9.433,2.275,15.154,3.485,1.936.41,3.948.835,6.034,1.288l9.334,2.093h42.944v-11.747h-41.594l-8.192-1.825c-2.108-.458-4.139-.888-6.095-1.301-5.54-1.172-10.325-2.184-14.484-3.323l-.278-.075c-.385-.104-.88-.305-1.388-.559-1.058-.528-.942-2.079.179-2.456.006-.002.012-.004.018-.007,5.013-1.932,11.459-3.601,21.103-5.11,7.127-1.115,14.659-1.394,21.738-1.53,36.181-.693,60.94.901,69.077,1.425,6.705.432,15.537,1.185,24.398,3.195,6.414,1.454,13.202,3.668,18.656,5.448,1.501.49,2.917.951,4.223,1.365.193.061.395-.048.455-.242l3.308-10.504c.061-.193-.041-.396-.234-.457Z"/>
    </g>
  </g>
  <text/>
</svg>